<svg data-name="Layer 1" xmlns="http://www.w3.org/2000/svg" viewBox="0 0 1989.8 1958.36">
  <path d="M1780.46 230.19c-6.84-15.59-14.29-32.77-21.52-49.14-2.6-5.88-1.84-13-4.33-18.2-2-4.23-6.19-5.85-9-9.56-6.61-8.73-7.24-18.42-15.82-26.72-8.91-8.62-11-13.9-15.81-25.26-2.28-5.4-5-12.14-9.37-16.19-7.44-6.87-9.37-3.23-18.68-4.79-6.7-1.11-11.72-5-18.59-5.8-5.9-.69-12.67.2-18.61.19H1569c-10.83 0-29.34-3.62-37.41 2.88-4.37 3.51-7.09 13.64-10.44 18.51-3.24 4.72-7.08 9.19-10 13.82-8.67 13.65-15.59 28.94-21.72 44.4-7.32 18.49-15.66 37.74-24.73 55.37-10.29 20-22.26 37.32-34.15 56.4-11.65 18.7-15.67 40.23-29 58.7-11.3 15.67-24.78 29.91-33.6 46.9a104.5 104.5 0 00-6.26-15.2 487.11 487.11 0 00-27.92-47.34c-12.58 6.55-20.67 10.2-35.88 10.12-8.83 0-18-1-26.58 1.19s-15.7 2.2-24.13 3.92c-7.26 1.48-10.47 4.75-18.28 5.65-6.61.76-13.4-.69-20-.23-2.51-4.38-5.08-8.66-7.3-12.53-11.71-20.44-27-31.79-46.08-44.66-10.44-7-19.71-13.06-28.93-21.13-10.54-9.22-23-11.5-33.38-19.88-17.4-14-43.15-31.71-66.33-34.73-8.95-1.17-29-2.41-37.34.91-6.37 2.53-12.94 10.92-18.6 15.23a159.13 159.13 0 01-21.27 13.29c-13.05 7-28.65 12.36-40.27 21.26-6.87 5.26-24.83 16.13-26.69 23.59-1.76 7 4 12.49 5.37 18.78 1.79 8.51.44 18 .45 26.72a279.74 279.74 0 006 59.94c4.08 19.81 12.1 39.67 14.64 60 2 15.8 5.86 29.3 10.19 44.28-8.82-10-17.72-20.16-26.83-30-21.53-23.28-42.95-44.74-69.32-62.48-18.89-12.72-32-30.94-49.5-45.19-10-8.14-19.76-14.63-28.79-23.93-10.42-10.73-19.59-15.35-32-22.44-39.79-22.67-70.44-57-108.82-80.63-25.8-15.87-46.91-37.76-73.78-51.76-19.8-10.31-34.73-29.16-55.18-37.87-12-5.09-24.46-5.1-37.22-10.63-13.7-5.93-27.7-9.67-43.82-9.34-8.38.16-10.69-2.3-17.15-4.12-7.33-2.07-15-1.13-22.73-1.17-25.49-.14-17.45 8.47-30.58 25.51-8.35 10.82-19.11 19.91-27.9 30.36-10.6 12.61-20.9 25.09-31.91 36.71-11.36 12-24.6 24.51-34 38.31-2.64 3.9-9 11.34-10.83 15.7-2.68 6.57-.43 19.2-.35 26.49.22 19.23-4.22 36.7-8.18 55.4-1.43 6.75-1.51 15-3.53 21.49-2.11 6.7-7.88 12.13-9.36 18.74-3.3 14.77-2.73 30.63-10.35 43.53 17.35 8.76 22 28.11 27.62 45.66 2.55 8 1.06 31.29 6.62 35.31 3.35 2.41 11.4-.48 15.5.39 8.14 1.74 15.79 9.25 23.53 12.6 22.23 9.63 43.23 22.08 65.19 32 12.52 5.65 26.74 8.56 39.11 14.09 13.77 6.16 23 21.16 33.38 31.77 19.5 19.9 46.15 34 64.33 55.5 9.51 11.26 19.1 22.08 30.34 31.75 14.31 12.3 24.92 27.69 39.15 40.09 16.72 14.59 31.37 28.33 45.62 45.79 11.17 13.67 21.25 28.13 32.13 42a59.27 59.27 0 012.25 15.88c-.1 15.27-2.93 24.74-6.47 38.7-.75 3-1.84 5.28-2.71 7.87a66.09 66.09 0 00-8-12.13c-10.35-12.32-24.67-20.49-36.14-31.79-13.13-12.95-25-18.5-41.22-26.59-5.5-2.74-11.29-5.12-17.07-7.55-5.91-3.21-12-6-18.2-9-9.42-4.63-17.91-15.58-23.79-23.92-7-10-9.56-23.3-21.72-28.77-5-2.25-10.65-2.42-16.08-5.19-4.84-2.47-9.68-4.17-14.63-6.64-9.51-4.74-19.43-11-29.07-13.42-4.62-1.18-8.12-1.19-10.86-.35-12-3.19-22.44-1.23-25.45 15.11-.74 4.06.16 8.51.67 12.87-9.87 9.17-18.54 20-23.24 29.65-7.06 14.53-6.68 45.5-4 61.34 4 23.59 34.46 38.67 48.36 57.08 3.48 4.61 6.54 8.77 9.75 12.6 1.14 8 2.19 16.07 5.53 23.5 5 11.19 12.64 19.29 16.6 31.51q2.22 6.86 4.28 13.63c-1.15.84-2.3 1.67-3.47 2.48h-59.89c-8.06 0-16.14-.12-24.21 0-9 .12-11.21-2.58-18.75-4.9-12.67-3.9-24.88-4.43-38.44-4.62-8.74-.12-13.24 2.39-21.52 4.31-11.85 2.76-8.95-1.25-11.88 10-1.72 6.62-2.75 12.17-5.2 18.9-2.88 7.95-8.05 13.34-9.36 21.66-2.24 14.12 4.43 31.9.45 45.59-3.72 12.82-18.41 9.4-28.87 9.32-4.3 0-15-2.17-18.39.72-3.11 2.64-3 18-6.43 23.14-7.4 11.09-18.38 19.58-25.3 30.87s-9.21 24.25-14.33 35.92c-5.81 13.24-7.4 23.48-7.18 38.22.11 7.2-2.32 10.09-3.71 15.39-.43 1.66-.77 8.33-.91 8.64-1.23 2.8-4.86 6.2-5.25 9.26-1.55 12.19 3.81 6 10 9.56a45.76 45.76 0 0110.59 8.5 57.52 57.52 0 018.35 10.75c4.51 7.12 4.49 8.37 1.31 15.38-8.25 18.17-10.93 33.07-10.83 53.64 0 5.68-1.47 14-.23 19.46 1.8 7.91 10.49 13.07 17 19 9 8.24 18.92 11.84 27.38 20.18 10.26 10.1 10.06 21.5 7.31 35.66-2.57 13.17-9.88 30.23 2 40.69 5.89 5.16 14.29 7.9 20.69 12.61 5.57 4.12 10.88 8.44 16.53 12.47 19.58 14 28.45 33.46 45.36 49.71 9.3 8.94 24.15 12.42 35.93 17.12 16.31 6.51 27.47 15.35 39.37 27.59 2.94 3 7.2 5.86 9.53 9.31 3.45 5.13 2.56 8.31 4.43 14.33 4.39 14 16.47 27 21.73 40.54 12.25 31.45 13.31 69.47 30.9 99.3 8.49 14.4 17.13 23.89 33.07 29.72 11.6 4.23 25 4.19 36.27 9.07 6.83 3 12.1 8 17.91 12.44 8.07 6.13 17.22 9.76 25.41 15.46 7.3 5.08 12.28 11.22 20.05 15.67 6 3.4 12.42 7 16.19 13 7.09 11.28 7.4 21.57 22.26 26.35 19.75 6.36 42.3-.21 63 3.4 9.42 1.65 18 2.79 27.32 3.59 10.19.87 17.7 4.8 28.35 5 29.33.54 57.34-10 86.25-10.11 14.6-.09 28.55 6.63 42.72 9 18.45 3 38.66 5.85 57.37 5.95s40.86-3.12 59.43.29c4.27.79 9.23 3.78 14.46 4.83 12 2.4 24.11 6.71 36.3 8.67 14.79 2.38 29 .07 42.72-3.31 5-1.24 11.48-4 15.4-4.76 7.39-1.49 15.85.92 23.06-.81 5.45-1.32 7.88-4.37 14-5.14 6.61-.83 12.61.77 19.21-.95 16.86-4.38 33.47-3.71 51.43-3.71 16.83 0 37.42 3.44 53.72-.14 13-2.86 18.92-16.67 29.49-24 12.26-8.47 28.18-14.91 41.8-20.86 13.1-5.73 27-5.61 38.38-12.32 12.24-7.22 24.41-16.22 38.18-20.25 5.59-1.64 10.58-5 15.4-7.22 2.22-1 6.39-.55 8.38-1.86 4.65-3 5.71-8.16 9.65-11.5 12.35-10.46 27.87-8.59 41.89-12.75 5.06-1.5 10.23-6.61 15.86-8 8.3-2.06 11.07-2 18.39-5.26 18.45-8.11 30.73-19.35 46.58-32.11a426.43 426.43 0 0135.2-25.17c10.78-7 18.87-17.91 27.31-27.57 17.66-20.24 30.28-43.54 49-63.37 7-7.33 8.45-14.13 13.72-22.47 7.2-11.39 13.81-19.62 19.34-32.49 7.89-18.36 24.82-30.29 28.29-51.8 4.26-26.44.36-56.82.36-83.7 0-12.49 3.57-31.41.23-43.46-1.5-5.41-7-8.38-8.85-14a168.49 168.49 0 01-6-27.22c-1.52-12.42-.13-23.82-3.22-36.37-2.72-11-6.81-21.47-10.88-32-6.79-17.61-3.9-28.18-.36-45.31 1.82-8.78-1.89-11.71 5-18 4-3.67 9.38-5.08 13.33-9.45 8-8.82 9.58-18.73 14.23-28.51 10.39-21.84 26.9-44.48 20.65-70.79-1.22-5.14-3.85-10.91-5.43-16.46-2.87-10-4.19-8.55-11.53-12-9.47-4.41-23.2-6.33-26.47-16.39-2.49-7.63 1.32-18.79.33-26.89-.74-6.12-3.89-8.3-5.15-13.72a61.64 61.64 0 01-1.07-6.41l.24-.2c4-3.48 5.15-6.85 7.92-10.69 5.9-8.15 11.59-16 20-22.74 8.92-7.18 20.64-13 23-25.11 5.4-28.28-17.8-48.17-21.93-74.41-2.45-15.53.21-14.47-15.39-21.29-5.16-2.25-11-3.58-16.34-5.46-3.35-1.18-10.39-3.93-13.63-4.66-6.88-1.56-11.69-.88-18.42-4.37-3.72-1.92-5.76-7.15-10.36-7.3-3.58-.12-9.08 5.06-13.09 6-5.3 1.3-13.29-.09-18.79-.18-21.92-.34-26.22 20.38-45.67 26.05-6.9 2-14.64 3.66-22.4 5.65 29.56-44.77 55-93.12 81.36-139.5a619.34 619.34 0 0029.2-57.13c7.3-16.53 14.22-34.31 21.8-50.46 8.29-17.65 20.92-32.63 27.51-51.91a475.22 475.22 0 0123.15-57.07c3.43-7 7.16-15.12 12.21-21.2 6.13-7.39 15.56-11.13 21.42-18.63 9.49-12.14 13-29.14 21.53-42.07 5.32-8.1 14.19-16 18.79-24.18 5.51-9.75 2.47-25.68 2.47-37.14 0-18.17-2-30.24 7.32-45.47 7.19-11.69 13.24-26.19 14.07-39.87a76 76 0 00-6.69-35.9z" fill="#ff0"/>
</svg>
