<svg data-name="Layer 1" xmlns="http://www.w3.org/2000/svg" viewBox="0 0 1989.8 1958.36">
  <path d="M1896 1450.84c-2.38-13.3-15.74-20.63-21.74-32-4.47-8.48-3.76-16-3-25.85.64-8.69 4.41-15.61 5.27-24.3 1.08-10.84-.26-22.51-.25-33.42v-59c0-14.13 2-29.09-.72-43-3-15.11-10.86-30-15.87-44.39-5.14-14.8-20.68-27.66-17.8-44.58a201.21 201.21 0 0110-35.67c6.09-15.88 9.81-23.37 9.77-40.55 0-12.85 1.88-27.23.25-40-1.55-12.23-3.82-27.73-8.53-38.92-3.55-8.44-9.13-16.22-10.93-25.14-1.57-7.82 1.68-16.24.11-23.81-1.67-8-7.8-11.93-13.18-17.27a123 123 0 00-9.87-14.88c-2.74-3.58-4.1-7.07-7.75-10.6a59.61 59.61 0 01-8.25-9.09c-3-4.41-6.45-11.29-10-14.87-3.34-3.36-6.94-6.06-11.11-10.12-8.66-8.43-17.78-11.57-18.39-24.63-.61-12.82.73-25.77.12-38.59-.34-7.09-2-10.35-6.52-15.68-4.26-5.07-6.63-4-12-6.24-10.33-4.24-17.58-10-24.69-19.18-3.36-4.33-4.55-9.67-9.07-13.14-1.68-1.29-4.76-1.38-6.63-2.57s-2.63-3.5-4.38-4.79c-8.72-6.36-18-7.12-27.17-11.38a148.6 148.6 0 01-26.36-16l-.1-.09c-2-1.86-4.08-3.58-6.2-5.2-6.23-5.67-12.33-12.66-15.64-19.52-4.16-8.59-10.56-19.33-17.75-25.42-3-2.57-9.58-4.64-13.26-6.61a102.34 102.34 0 01-13.68-9.17q-2.28-1.74-4.68-3.42c3.51-10 13.22-14.66 17.41-26.24 3.19-8.8 6-15.75 5.71-25.29-.25-10.17 3.92-14.86 5-24.2 1-9.11.93-18.24-3.53-25.62-4-6.56-12.69-9.45-15.66-16.19-2-4.42.41-9.6-.18-14.23s-2.86-7.87-4-12.14c-2.38-9.12 1.28-19.37-2.06-28.1-4-10.38-16.42-13.42-23.58-20.39-9.06-8.83-9.48-14.13-24.06-14.84-8.55-.42-18.53 1.87-26.92.28-12.12-2.29-9.61-7.09-12.41-17.15-3.57-12.84-11.65-22.25-14.32-35.77-1.77-9 1.32-8.74-8.14-10.79-5.15-1.12-11.1 1.74-16.25.58-7.93-1.79-15.29-8.6-24.08-10.21-10.31-1.89-18.57 4.41-28.33 5.94-2.44 15.09-16.3 34.87-32 37.87-7.5 1.44-14.81-.7-22.34 1.27-8.16 2.13-12.63 5.66-21.88 3.4-6.48-1.58-16.35-6.26-22.12-9.35-4.65-2.49-7.75-7.11-12.34-9.31-2.74-1.31-5.94 0-8.84-.88-3.33-1-3.56-3.92-7.38-4.74-10.53-2.28-13.56 6.1-21.15 9.26-5.89 2.45-10.21 2.91-15.71 5.67-7.4 3.73-10.7 6.77-20.81 5.1-5.27-.87-17.54-3.72-20.32-7.77-2.92-4.27.52-16.39-.1-21.75-1.29-11.27-3.85-8.46-12.38-14.34-5.22-3.6-7.69-10.63-13-13.74-10.1-5.91-31.2-2.17-36.7 6.92-6.74-2.35-11.07-17.18-15.71-22.49-6.42-7.35-16.13-13.16-25.76-18.37-18.52-10-44.87-6.8-66.38-6.06a261.52 261.52 0 00-45.32 6c-5.54 1.25-13.4 9.25-18.24 9.24s-4.77-5.75-9.74-5.85c-.4 0-13.73 6.19-13.74 6.21-3.36 4.7.43 11.24-.67 16.35-1.88 8.79-9 12.77-14.75 19.75-7.18-6.41-9.71-17.53-10.46-26.51-6.84-2-13.88.38-20.74-1.12-5.4-1.18-4.71-6-11.5-3.6-7 2.5-13.39 15.67-22.4 13.54-7.76-1.84-11-16.58-13.91-22.93-4.26-9.45-6.76-20.65-14.63-29.4-7.6-8.43-22.27-8.92-32.9-10.69-11.17-1.86-10-7-19.17-12.34-4.48-2.6-9.31-.83-13.82-3.2-3.08-1.62-5.42-6.66-8.19-8.81-8.5-6.61-11.06-3.47-20.74 1.23-12.46 6-14.23 2.19-24.43-7.39-6.06-5.69-11.47-9.2-18.57-13.2-10-5.62-15.3-12.78-23.85-19.68-9.27-7.48-15.79-1.71-26.74-4.32-12.77-3.06-18.79-14.06-34.29-10.34-6.63 1.58-16.41 6-21.68 9.92-7.06 5.3-11 11.12-18.8 15.24-1.93 1-8.77 3.33-10 4.64-4.41 4.91-1.5 7.71-2.54 14.23-2.28 14.39-8.44 22.71-20 29.27-8.25 4.69-8.1 12.62-16.53 14.71-10.51 2.6-23.81.16-33.91 5.05-8.35 4-12.07 14.41-13.35 23.17-7.92.83-12.89 2.4-17.54 6.53-11.41 2.42-22.47 7.5-32.26 12.93-11.87 6.57-23.54 8.48-36.94 8.27-18.8-.28-36.84 6.33-54.91 7.43-10.52.65-18.07 3.62-29.4 3.58s-22.51 0-33.77 0c-18 0-34.47-.6-51.85 4.67-11.6 3.53-23.39 2.85-35.52 2.68-9.4-.13-21.23 3.05-29.27 7.25-4.05 2.11-6.88 6.45-10.94 7.7-2.13.65-5.34-.6-7.63-.37-3.81.37-5.45 2.35-8.07 2.95-9.07 2.08-25.24-3.82-20.54 10.94 1.6 5 9.89 12.52 14.21 16 5.39 4.32 9 9.32 14.4 13.49a413.12 413.12 0 0135.39 31.3 29.11 29.11 0 011.41 9.9c-.17 9.18 1.54 13.85 4.59 21.93 3.55 9.38 5.16 16.47 12.89 23.13 11.49 9.89 21.95 14.31 29.53 28.55 4.55 8.55 8.58 15.88 15.3 22.66 3.8 3.84 6.4 4.77 7.72 10.21 1.12 4.6-1.51 10.21-.45 14.86 1.26 5.55 6.18 12.6 8.43 18.08 3.52 8.56 2.76 16.6 2.77 25.79 0 4.75-.68 10.09-.07 14.78.78 6 2.21 6 5.1 11.23.6 1.08 1.23 2.17 1.87 3.28-3 4.23-8 5.92-11.19 12.08-2.13 4.09-2.45 14.83-.14 18.73 2.65 4.47 7.45 4.07 9.26 9.22 2.33 6.64 2.13 34 0 39.64-4.7 12.28-29.16 12.67-38.93 21.21-5.38 4.72-6.22 11.9-11 16.39-2.78 2.6-11 3.79-14.83 6.64-17.88 13.2-16 22.31-20.66 42.38-3.87 16.86-1.2 30.79 1.83 48.4 5.41 31.41 55.07 46.7 80 58.58 20.29 9.68-3.33 14 4.29 28.64 5.2 10 21.37 8.5 27.43 16.51s-4 22.66-4.12 31c-.18 14.87-2.31 25.43-14.57 35-8.66 6.77-7.12 5.91-9.49 15.67-2 8.39-8.74 8.75-12.18 14.54-3.55 6-1.14 11.11-2.4 18.44-1.11 6.5-4.43 11.56-5.31 18.08-1 7.12.58 15.1.37 22.25-.3 9.59-3 18.26-5.05 27.57-3.3 14.62-6.51 23.65-.64 37.76 3.73 8.92 6 8.73 12.93 15 3.37 3.05 9.29 8.63 11 12.77 4.14 9.84-2.84 19 6.58 26.88 9.14 7.6 30.06 13.53 41.68 17.14 7.25 2.25 15.18 2.79 21 6.38 3.8 2.34 7.4 8.31 10.6 11.6 12.31 12.5 28.92 19.5 42.3 31.5 14.36 12.81 15.21 22.4 15 40.43-.2 16.31 4.1 25.31 17 35.12 10.66 8.1 13.74 19.63 24.37 27.17 19.14 13.58 31.72 15.42 31.55 40.64-.11 16.18 5.29 30 4.92 46.24-.46 19.62 10.35 33.43 13.56 52.6 1.47 8.82-.7 17.67 3.54 25.43 5.27 9.64 14.7 18 21.76 26.39 10.86 12.86 14.65 33.54 27.8 43.84 7.79 6.09 12.61 3.36 21.06 5 15.43 2.94 31 8 46.83 11 26.47 5 49.66 7.84 76.48 8.6 7.63.21 13.51 2.46 20.87 3.84 9.61 1.82 19-.22 27.94 3.87 6.87 3.12 11.43 9.52 16.9 13.66 6 4.5 13.33 6.48 21.36 7.47 14.18 1.73 15.39-1.81 25.57-8.75 4.33-3 13.93-8.9 19.09-10.13 6.62-1.59 11.66 1.12 17.86 3.23 16.64 5.66 31.2 14.32 47.32 20.91 27.79 11.36 56.94 19.78 87 19.51 25.41-.23 49.33-5.18 74.64-4.94 28 .27 54.57-5 82.35-4.85 10.55.06 22.26-1.58 32.67-.26 7.54.95 14.18 4.58 21.75 5.36 13.52 1.4 38.32 3.4 49.67-2.87 20.79-11.49 40.17-25.75 58.45-41.13 9.65-8.13 19.44-20.72 31.55-24 7.43-2 16.45-4.73 24-5.45 25.28-2.4 52.12 5.56 76.39-4.21 13.75-5.53 24.75-16.75 38.17-22.28 7.47-3.08 13.4-2.48 21.58-2.42 24 .2 45.45.47 68.77-6.1 7.09-2 16.61-8.64 23.71-9.08 8.07-.5 14.59 7 21 10.46 7.83 4.24 14 5.92 20.6 11.86 6.88 6.23 8.92 10.67 17.94 12.64 14.71 3.22 34.88-.42 50.13-.34 14.46.07 17.12-1.43 28.9-7.43 11.18-5.7 29.6-11.54 42-12.2 7.85-.43 16 1.72 23.67-.54 11.57-3.42 18.92-12.19 32-13.68 20.46-2.33 35.13 6.87 46-14.32 5.27-10.27 8.88-24.2 17.48-32 5.7-5.21 13.74-5.6 18.11-11.92 7.72-11.16 6.85-27.3 9.23-39.89 3.54-18.66 7.59-43.41 4.18-62.64z" fill="#ff06a5"/>
</svg>
