<svg data-name="Layer 1" xmlns="http://www.w3.org/2000/svg" viewBox="0 0 1989.8 1958.36">
  <path d="M1944.19 1225.85c-1.76-3.84-6.36-6.1-11.94-7.72v-1.9c.26-20.83-4.79-20-19.92-28.76-17.06-9.9-33.84-21.1-50.63-31.86-14.31-9.17-22.16-19.53-37.7-26.15-11.89-5.06-24.89-11.25-37.92-15.25-29.46-9-53-21.58-79.47-36.53-20.19-11.39-42.27-18.11-61.93-30.48l-1.12-.7c-.52-15.77-1.06-31.88 1.91-46.83 7.53-37.94 10.08-83.28.13-120.53-3.23-12.1-3.73-20.64-10.95-31.2-4.94-7.21-11-11.92-16.27-18.2-6.56-7.86-10.33-12.55-18.69-19-8.78-6.72-15-8.6-17.53-20.45-1.88-8.65-2-19.3-1.57-30a61.29 61.29 0 0110.64-17.82c11.11-13 18.61-13.18 18.22-31.85-.2-9.94.42-19.91.17-29.83-.8-31.56-9.51-68.62-18.24-98.37-3.2-10.9-11.74-20.68-18.47-30.13-8.5-12-21.34-18-29.22-30.46-11.2-17.66-23.12-39.61-39.09-53.6-6.4-5.61-11.94-7.56-17.07-13.39-.5-.56-3.2-6.23-4.28-7.76-4.83-6.79-13.29-11.23-18.42-17.82-7.15-9.19-7.72-19-15.24-27.71-4.54-5.25-11-9.41-15.23-14.9-7.44-9.74-11.19-21.6-18.11-30.93-6.14-8.27-10.82-11.72-15.37-21.17-7-14.56-18.81-24.71-30.44-36.56-7.41-7.54-13.9-9.59-21.5-15-6.86-4.92-11.14-13.63-18-18.59-8-5.83-17.67-9.14-26.18-15.09-6.16-4.32-10.4-11.2-16.47-15.34-19.77-13.48-35.66 2.43-52.06 12.14-20.35 12-38.1 24.83-54.92 43.11-25.3 27.5-53.34 46.93-78.91 72.77-8.09 8.18-16 16.52-24.36 24.34-8 7.44-13.66 6.51-23.15 12.06a74.6 74.6 0 00-7.72 5.42c-1.6-9.24-2-17.52-2.56-28.87-1.05-21.17-7.84-33.56-21.8-48.85-19.24-21.07-33.4-55.91-59.8-67.1-55.35-23.45-101.83-69.88-166.68-68.63-15.57.3-37.73 4.71-51.6 10.46-8.24 3.41-32.39 15.68-27.26 24.1-17.22 0-41.5-4.26-58.16-.26-7.63 1.83-12.3 5.49-19.93 7.32-9 2.16-21.55-.26-30.91-.25-29.95 0-78.43-9.71-102.42 10.23-20.73 17.22-36.67 39-52.57 59.76C434 327.35 411 350.7 392.06 376.34c-9.18 12.41-12.26 28.16-15.73 42.76-4.1 17.22-18.52 33-25.81 48.52-5.94 12.6-8.22 24.39-14.47 36.63-5.54 10.86-15.6 24.45-18.9 35.6-5.89 19.91 2.33 34.28 5.63 53 2.94 16.69-.39 37.49-.36 54.5.05 22.34-5.59 40.37-11.3 59.27-20.59 18.72-39.29 41.53-54.17 64-7 10.57-16.67 20.55-25.24 31.68-10 13-19.76 16.73-26.23 33.4-10 25.89-31.55 43.43-44.3 68.62-14.79 29.2-32.37 60.9-31.67 94.06.4 19.16-6.06 31.47-10.83 49.06-3.58 13.24-5.39 24.19-12.18 36.49-6.16 11.17-9.51 23-11.35 35.23-3.11 4.5-6.3 9-9.64 13.38-2.65 3.52-7 14.53-8.52 18.73-1.72 4.61-5 13.23-6 17.81-3.9 17.53-2.24 35.49 8 48.64 22.11 28.48 48.68 50.69 76.35 74 14.81 12.46 29.57 25.07 44.72 37.06 6.26 5 14.35 9 20.06 14.44 8.72 8.31 11.19 19.55 18.74 28.29 21.54 24.95 48.18 53.36 76.82 67.61 32.11 16 60 40.26 99 32.79 7.27-1.4 18.21-6.75 23.94-12 6-5.53 5.73-12.75 12.76-16 16.66-7.71 39.8 5.87 54.85 7.5 5.68.61 23.37 4.31 27.65 3 8.12-2.58 10.08-16.36 15.09-22.21 13.23-15.42 34.56-3.39 51.63-.35.56 17.77 16 39.68 35.22 31.89 11-4.45 11-16.58 22.46-7.81 4 3 7.81 13.14 9.9 17.48 6 12.49 12.81 21.2 23.85 30.66a381.76 381.76 0 0030.5 24c17.18 11.82 31.5 1 49.53-2.2 12.91-2.28 35.12-2.26 47.69 0 18.7 3.36 38.16 8.65 54.31 18.92 16.71 10.63 30.79 16.39 47.87 22.3 7.58 2.63 12.64 3.66 20.24 7 3.16 1.39 16.59 6.48 20.28 7.13 14.49 2.52 33.64-10.21 46.36-15.81 13.43-5.91 26.69-6.55 42.2-3.62 12.24 2.31 21.52 9.2 34.57 4.06 11.18-4.41 18.63-17.2 27.06-24.5 7.86-6.8 17-11.11 22.47-20.28 4.52-7.58 1.77-15.11 6-22.48a38.61 38.61 0 0111.16-8.11q1.46-5.14 3-10.26c2.65-4.89 5.64-13.56 9.91-17.32 13.82-12.2 25.45 10.52 43.08 9.13 17.41-1.37 34.13-14.51 53.31-13.26 5.7 9 8.44 19.92 11.31 30s1.43 19.91 4.37 29.5c10 .73 15.77 4.5 22.89 11 6 5.48 12.39 19.43 18.47 23.15 12.18 7.45 33.77-2.23 47.68 1.9 26.56 7.89 21.8 36.55 53 33.3 20.85-2.17 37.09-17.66 54.8-27.52 34.66-19.28 70.54-40.77 102.94-64 12.9-9.26 26.61-13.68 39.79-22.71 19.74-13.52 26.69-22.35 51.09-22.07 33.35.38 73.82 6.23 103-9.41 20.12-10.79 53.67-23.52 76.53-25.17 7.54-.55 17.79 3 25.1.24 10.39-3.94 11.23-14.34 16.79-23 15.51-24.19 36.28-40.3 44.36-68.7 4.11-14.47 8.62-32.8 10.4-47.68 1.15-10.9 4.5-42.16.1-51.75z" fill="#ff06a5"/>
</svg>
