<svg data-name="Layer 1" xmlns="http://www.w3.org/2000/svg" viewBox="0 0 1989.8 1958.36">
  <path d="M1901.16 707.92c-3.17-20.63-25.78-14.33-43.12-14.31-6.48 0-13.58.85-20 .12-10-1.14-8.71.63-11.5-8.45-2.66-8.71 2-9.24-5.2-16-1.91-1.77-12.43-9.07-15-9.67-12.22-2.88-20.51 14.69-28 22.61-20.89 22.2-46.5 42.29-71.27 60.06-9.05 6.49-19.9 10.15-28.7 16.78-5.67 4.26-11.45 14.91-19.92 13.73-15.19-2.13-8.23-31.85-5.43-42.16 3.71-13.74 5.8-33.54 2-47.72-8.42-.83-27.58-4.51-32.26-13.11-9.74-17.87 30.64-35.78-6.38-39.24-9.55-.9-20.26 0-30 .27-15.37.39-35.32 8.79-49.85 6.41-5.56-.91-6.08-5.26-11.34-6.55-6.79-1.67-16.07.36-22 3.84-2.23-11.08-11.47-14.89-12.78-26.22-1.25-10.8 3.38-23.19-.71-33.46-21.72.55-5.92-33.9-1.16-45.55-4.6-.59-9.24-1.08-14-1.48-.76-4.87-1.4-9.74-1.9-14.64-7.83-5.48-23.73 15.81-33.07 16-4.55.09-11.92-9.32-15.65-11-5.72-2.58-15.71-4.56-21.94-6.09-20.39-5-38.64-6.5-59.6-6.41-12.26.06-27.06 2.17-38.78-.84-3.65-17.72-.34-14.54-18.78-15.66-21.32-1.3-32.78-20.92-53.23-23.55-25.15-3.23-52.48.25-76.05 5.3-3.24-17.89-5.62-29.29-20.95-41.71-19.08-15.47-38.89-34-54.45-52.69-11.94-14.36-19.3-32.26-29.53-47.79-3.29-5-8.46-16.9-15.34-17.49-5.79-.5-13.8 6-20.1 6.72s-13.73-1.88-19.93-.62c-8.6 1.75-10.19 7.33-16.77 12.07a20 20 0 01-10.59 4.1 59 59 0 013.58-13c11.24-27.13 28.41-33.79 20.38-66.91-13.91-2.38-17.35-4.26-28.47-9.75-4.27-2.11-7.73-6.37-12.52-8.73-4.13-2-10.58 2-15.34-1-10.65-6.78-10-25.91-27.8-25.3-7.3.25-17.89 11.25-24.92 13.87-10.13 3.77-19 2.2-29.9 4.79-12.06 2.87-18.24 13.73-29.19 16.76-14.61 4-54 3.63-68.8 0-12.62-3.08-13.32-10.83-28.48-8.29-6.35 1.07-18.12 6.52-25.47 8.66-5.94 1.73-6.21 6.54-13.11 8.12-5.54 1.27-12-1.24-17.64-.66-10.71 1.09-15.46 3.56-24.44 8.28-4.47.14-8.92.25-13.3.26-14.12.05-28.12.33-41.72 5-18.15 6.21-30 20.33-44.75 31.67-10.83 8.33-22.29 17.09-34.63 22.93-18.48 8.76-33.7 4.54-40.41 26-5.27 16.9-12.08 35.45-16.21 52.15-7.37 29.76 6.12 24.66 24.19 38.8 23.05 18.05-8.2 33.19-1.19 51.34 3.11 8.07 13.48 15 17.92 22.93s6.11 8.2 12.56 13.41c11.84 9.57 18.65 26.74 6.28 40.87-4.76 5.43-13.43 6.55-15.25 13.77-2 7.93 4.82 10.62 6.53 17 .9 3.38 1.18 7.95 1.55 12-10.16-4.94-19.89-7.76-30.16-12-6.89-2.83-7.45 1.92-13.22-3.86s-1.06-6.32-3.86-13.22c-2.88-7.09-7.37-23.2-12.71-28.74-6.27-6.51-23.18-10.74-32.17-11.94-.58-5.16-1.12-10.09-1.68-15.27-16.65-5.32-36.73 3.48-53.52-.58-17.79-4.3-3.46-31.5-8-46.09-2-6.55-8.41-8.62-11.18-14.45-3.13-6.59.59-13.47-7.32-18.31-6.08-3.74-14.83-2.88-21.64-6.85-6.61-3.86-13.47-10.43-21.53-10.81-5.47 11.63-18.38 20.85-28.18 29.32-10.52 9.08-24.73 11.92-34.15 22.51-10.5 11.79-19.56 24-35.44 27.63-7.35 1.69-16-2.21-23.37-.59-6.15 1.36-8.65 6.77-15.81 7-2.71 12.11-3.12 18.72-10.94 29-7.92 10.47-7 16-7.11 29.76 0 4.94-1.58 12.08.42 16.66 1.77 4 6.34 5.13 8.33 8.76 4.68 8.54 3.89 24.41 2.76 34.51-1.1 9.89-5.71 15.41-10.1 24.07-5.56 11-5.28 18.13-7.6 29.9-1.66 8.4-6.77 20.88-11.55 27.83-6.09 8.87-14.17 13.58-11 26.59 1.91 7.89 10.17 14.25 12 22.17 2.44 10.78-.73 25.08-3.14 34.46-2.53 9.85-3.15 19.23-8.56 28.48-5.09 8.67-11.53 17.14-17.13 25.61C82 862 61.45 882.82 66.81 898.92c1.65 5 5.19 5.53 7.51 9.54 2.93 5.06 2.07 7.83 4 13.11 3.19 8.88 10.13 15.9 11.76 25.25 2.26 12.91-2.92 27.43-.41 40.28 2.32 11.94 10.43 14.82 11.59 28.27s9.25 16.34 11.59 28.27c1 5 1 14.77.23 19.85-1.54 10.22-11.36 18.35-11.38 28 7.33 1.71 14.18-.43 21.37 1.71q.85 4.69 2 9.33 4.64 1.2 9.34 2.06c3.4 12 2.66 32.12 1.1 44.71-2.05 16.58-18.65 25.7-22.47 42.58-6.44 28.47 0 64.62-.42 93.95-.12 9.28-.15 11.37 4.11 18.66 1.3 2.21 4.88 2.93 6.15 5.25 1.85 3.39-.29 7.15 1 10.31 8.92 22.42 16.7 46.31 31.68 65.61 13.12 16.89 13.56 48.43 31.1 62.26a157.42 157.42 0 0034.34 20.19c32.2 13.59 52.62 45 90.86 39.38 15.31-2.26 25.16-6.15 40.37-1.34 10.59 3.35 17.92 10.7 28.05 13.51 8.25 2.29 14.59 1.47 22.8 6.67 7.27 4.6 16.12 12.58 24 14.51 10 2.44 12-.62 21.22-3.12 9.63-2.61 19.14-.64 28.9-1.14 17-.85 28.48-11.86 46.29-11.52 15.1.29 29.71 1.8 43.56-5.29 12-6.15 24.06-16.28 34.9-24.32 16.71-12.39 33-24.4 52.52-32.15 11.51-4.57 23.26-5.91 33.61-12.14 7.82-4.71 13.5-12.15 20.92-17.36 10.51-7.38 19.24-7.74 30.33-11.08 8.44-2.55 9.38-5.47 19.48-5.92 13.72-.6 27.29 1.4 40.92-1.21 2.26-.43 4.54-4.25 7.42-4.74 5.53-.93 10.5.17 16-.95 5.76-1.17 10.12-4.52 18.24-4.41 11 .15 24.08-2.6 34.54 1.12 8.26 2.93 12 11 21.41 11.22 1.53 17 10 15.21 23.89 16 21 1.16 24.48 23.24 42.87 28.59 14.26 4.16 28.29-6.11 39.33 8.09 4.81 6.19 6.2 15.25 9 22.48 2.49 6.48 3 26.49 6.63 30.26 4.54 4.65 10.27 1.1 15.84 1.52 8.45.63 16.65 5 24.6 7.57 19.93 6.47 27.75 3.46 46.31-4 17.47-7 37.14 4.22 54.64 10.33 11.22 3.92 23.37 5 34.37 9.39 14.71 5.87 21.07 18.93 33.78 27.41 15 10 32.95 11.83 50.17 12.12 10 .17 10.91.3 18.33 6.94 6.22 5.58 9.95 14.56 19.47 16 17.29 2.58 38-16.59 57.19-17.26 20-.7 41.47-2 60.31-9.69 10.57-4.29 28.51-12.63 33.05-24 3.32-8.29.53-19.62 2-28.46 2.53-15.43 5.11-32.47 13.16-45.92 9-15.08 21.74-25.48 27.71-42.56 5.44-15.56 6.44-33.1 9.24-49.36 4.86-28.28 9.6-58.91 22.6-84.91 8.1-16.19 11.53-21.66 11.6-39.62.07-19 3.18-22.81 19.22-32.06 11.64-6.72 20.87-5.62 32-10.43 5-2.17 8.14-6.94 14.18-8.34 6.4-1.48 13.92 1.88 20-1 7.93-3.74 14.18-19.12 20-25.27 5.13-5.45 10.39-10 14.44-16.38 7-11.19 3.82-18.82 5.32-31.93 2.27-19.78 9.63-3.66 21.76-12.13 4.85-3.4 4.1-12.55 7.85-16.65 7.15-7.82 16.67-5.39 26.72-5.37 18.24 0 37.19 8.63 55.09 6.11 15.51-2.19 20.27-17.2 36.74-17.53 16.78-.34 16.72-1.52 22.78-17.14 5.33-13.77 5.93-24.32 5.67-39.47-.17-9.33-.72-17.17 3.11-25.79 4.53-10.21 12.55-17.74 16.43-28.48 5.77-16 6.81-34.08 8.32-50.84 1.67-18.46 5.78-36.75 6.65-55.21 1.45-30.94-1.49-60 4.15-90.19 2.28-12.21.83-24.63 2.49-37 1.97-14.53 7.1-30.79 4.81-45.73z" fill="#ff06a5"/>
</svg>
