<svg data-name="Layer 1" xmlns="http://www.w3.org/2000/svg" viewBox="0 0 1989.8 1958.36">
  <path d="M316.24 1220.87c-1.21 10.28 8.07 21.12 4.89 32.93-2 7.54-10.24 16.19-14.22 23.11-4.32 7.51-3.54 16.52-10.41 22.29-6.48 5.44-16.89 7.14-23.55 13.8-13.47 13.47-15.16 32.43-25.62 48-6.82 10.11-15.85 15.26-23.31 24.28-6.25 7.56-10.08 19-15.18 27.08-4.59 7.32-13.67 12.58-17.73 19.61-3.37 5.83-2.45 23.39-1.12 29.59 2.49 11.55 10.16 9.94 18.85 15.83 10.58 7.17 13.19 18.39 19.72 27.32 2.68 3.68 5.79 6.82 8.3 10.38 2 2.92 2 6.06 5.61 8.39s28.26 3 32.09 1.3c7.81-3.39 5.16-17.22 18.45-14.69 15.41 2.93 4.22 14.83 5 23 8 3.59 17-3.44 25.18-4 10.69-.71 17.05-.32 20 10.43a30.9 30.9 0 011.15 13.08c-.77 5.14-2.82 6.45-3.73 10.26-.82 3.46-2.73 9.51-1.35 13.21 2.49 6.66 7.51 4.21 11.72 9 5.12 5.77 7.92 15.74 13.1 22.56 4.84 6.39 11.28 9.47 17.64 13.76 3.16 2.14 30.77 41.21 28.7 16 32.5-9.25 51.06 26.34 66.85 48.44 7.82 11 6.23 4.34 16.16 1.88 7.91-2 17.45 1.39 25.52-.16 3-.56 3.92-3.73 7.16-4.51 2.83-.68 11.45-.22 14.36.14 8.73 1.07 13.76 3.15 14.7 13.31 4.22.61 8.25 1.09 12.52 1.49 2.39 7.2-3.05 15.22 5 18.43 7 2.78 16.85-5.53 22.73-8.14 5.81 6 5.85 14.18 11.46 20.54 4.39 5 6.91 10.65 10.85 15.19-8.28 6.89-9.39 18.87-13.06 28.11-3.23 8.12-12.11 12.55-7.36 22.33s13.5 9.73 22.42 10.13c10.74.47 19.09 4.9 30.34 4.78 10.11-.1 20.24-.06 30.35 0 3.4 0 11 1.22 14.23.23 4.77-1.5 5.06-5.46 8.93-7.4 6.06-3 16.79-1.72 22.39 3.3 10.61 9.51 11.23 16.72 28.47 12.5.93-8.21.53-19.93 9.79-23 3.39-1.12 7.85 1 11.52 0 3-.85 4.35-4.12 7.16-5.61 22.67-12 20.76 11.54 35 15.5 1.89.53 10.19 1.06 12.24.12 7.44-3.39 1.66-2.58 4.2-9.56 1.68-4.62 2-9.61 5.86-13.34 2.12-2 5.82-1.49 8.24-4 3.9-4 3.09-9.4 9.27-11.43.64-.2 14 0 14.47.25 6.51 2.93 4 12.61 12.63 13.78.62-2.67 1.23-5.33 1.84-8 7.12-1 12.29.14 18.11-5.21s5.24-10.53 13.66-13.29c6.8-2.22 26.44-3.14 33-.13 4.07 1.86 9.42 9.19 13.9 12a107.24 107.24 0 0113.87 9.94c6.57 6 7.65 16.37 14.12 22.2 5.35 4.82 11.14 5.41 17.63 7.56 5.92 2 6.29 4.57 13.91 2.56 1.21-.32 12.92-8 13.07-8.14 5.37-5 4-12.08 11.19-14.58 5.56-1.94 13.43 2.31 19.13.56 4-1.24 5.07-3.17 7.82-5.92a23.43 23.43 0 016-7.74q4.23-1.21 5.69 3a10.75 10.75 0 008.44 1.49 6.93 6.93 0 005.57-4c5.83-1.36 11-1.83 17-.35.41 4.28.89 8.31 1.49 12.54 14.59-.73 14.15 21.57 27.1 24.48 6.8 1.53 9.12-.86 15.27 2.93 4.86 3 7.43 8.35 11.83 10.37 1.11-13.84 10.41-16.23 19.71-23.79 11.79-9.57 15.56-21.34 19.08-34.26 3.87-14.18 9.25-9.7 20.62-13.75 9.71-3.45 18.9-20.27 29.64-16.19 3.38 11.77-7.12 37.26 9.71 37.32 8.95 0 17.43-6.52 24.72-8.62 8.26-2.38 16.21 0 24.61-3.54 22.08-9.3 46.38-39 60.56-58 4.47-6 7-12.45 10.59-19 7.63-13.72 9.63-7.94 18.9.33 5.21 4.65 8.39 4 15.19 6.57 1.89.72 2.43 4.08 4.49 5 6.39 2.92 12.87 2.35 19.89 2.27 8.93-.1 20.15 1.67 28.76-.51 6.5-1.63 8.81-7.94 16.8-2.86 5.68 3.63 7.74 16.22 11.82 21.68 5.68 7.58 12.1 10.2 20.74 14.34 9.9 4.75 30.11 9.59 37.48 16.62 6.19 5.9 1.36 17.3 8.71 21.24 6.45 3.45 20.1-1.88 27.83.26-.77 7 2.33 6.35 6.85 10.36a189.73 189.73 0 0031.41 21.86c12.42 6.86 36.79 24.06 51.13 23.86 5.89-.08 10.18-3.93 14.79-7.3 11-8 19.83-14.38 31.53-20.78 19-10.38 14.89-34.55 24.16-53.11 10.57-21.18 27.78-37.07 37.21-58.9 3.73-8.62 6-14 12.57-20.61 14.43-14.47 25.09-33.78 24.59-55-.29-12.5-2-13.06 7.88-19.71 6.16-4.15 13.68-7.88 19.21-12.88 7.67-7 6.83-8.72 11.3-17.6 4.91-9.74 12.5-16.09 17.66-24.53a101.68 101.68 0 019.34-12.61c7.51-9.07 7.5-14.18 10.49-25 2.47-9 7.23-17.26 8.41-26.73 1.87-14.89-5.71-18.12-13.45-29.17-3.65-5.21-.08-5.83-5.21-10.49-2.37-2.16-7.83-4.71-10.71-6.81-9.52-7-8.77-13.17-8.19-24.62a199.26 199.26 0 014.53-32.91c2.2-9.8 5.17-10.62 12.85-14.82 9.87-5.4 13.4-12.07 24.64-13 8.6-.69 23.74-5.12 17.83-17.75-4.12-8.78-10.18-7-8.6-19.75 1.1-8.81 4.47-14.75 4.87-24.27.49-11.57-2.41-25-.21-36.38 2-10.22 7.25-12.18.31-18.59l-5-.9a18.69 18.69 0 01-5.81-7.4c-3-2.93-4.79-3.49-8.06-5.71-8.91-6-8.9-4.22-4.78-13.55 5.58-12.64 4.82-23.78 4.78-37.7 0-6.24.26-12.54.09-18.77-.31-11.31.25-11.37-6.49-18.92-1.88-2.11-5.45-3.26-7.48-5.14-6.23-5.76-6.76-11.43-10.73-18.35-4.91-8.53-6.08-12.75-9-21.72-3.15-9.65-14.06-16-17.13-24.61-2.82-7.84.51-8.42 5-14.82 7.85-11.19 10.47-18.74 13-31.86 3.6-18.45 18.27-48.27 7.75-66.78-3.41-6-8.39-5.51-13.91-8.19-8.73-4.24-8.54-2.34-7.89-13.56.94-16.45 6.42-34.7 10.56-50.76 7.5-29.07 2.78-50.76-17.08-73.85a110.59 110.59 0 01-7.4-9.75c-3.58-5.3-5.76-14.87-10.3-19.25-9.5-9.15-29.54-2.25-40.47-5.62-3.72-11.68 2.34-25-.26-36.75-1.77-7.95-5-6.37-9.86-12-6.78-7.84-4.26-18.25-9.7-27.45-11.77-19.94-27.77-45.17-53-44.93-16.32.16-32.9.78-49.21.09-17.79-.76-23.69-23.11-32.81-36.65-7.94-11.81-10.87-19.54-13.8-33.25-1.85-8.66-5.07-16.22-8.19-24.51-4-10.67-10.72-20.19-14.47-30.71-5.64-15.79-9.09-30.17-17.19-45.46-7.11-13.42-8.5-22.85-4.62-37.31 2.94-11 4.19-21.49-1-31.39-3.72-7.1-9.3-10.5-15.5-15.31-7.44-5.78-12.86-13.5-18.68-21-4.61-6-7.35-12.87-11.75-19.06-5.9-8.3-14.6-14.53-20-23-3.82-6-5.22-11.82-10-17.22-7.9-9-15.24-18.87-22.76-28.73-12.51-16.4-19.63-28.85-39.75-38-10.33-4.71-20.87-9.11-31.12-14-12.41-6-26.1-8.81-38.14-14.12-5.1-2.24-9.44-6.45-14.66-9.19-13.93-7.31-29.5-12.44-43.88-19.2-7.77-3.65-15.23-4.76-23.42-7.45-9.43-3.1-17.21-9.33-26.75-11-17.64-3-40.27-.75-58.47.11-8.17.38-16.21 2-23.59 5.83-8.37 4.4-16.66 13.25-27.18 12.47-2.42-18.68-9.94-29.64-28-36.07-6.84-2.43-15.28-.54-22.28-.67-12.49-.23-24.62-2.27-36.8-4.8s-22.42-4.76-35-4.65c-15.58.12-31.16 0-46.73 0H974.4c-11.3 0-30.39-3.91-40.88.7-6.61 2.91-15.43 13.75-20.7 18.91-9.86 9.65-19 20.84-29.46 29.8-14.2 12.12-31.47 1-46.69 11.13-5.91 3.94-7.71 9.52-12.48 14.25-9 8.94-21.42 1.68-33.18.23-15.72-1.94-26.55 5.26-40.12 12.79-7 3.87-9 7.78-14.7 13.26 2.89-13.88-7.35-20.94-18.19-26.34-21.44-10.68-42.65 5-62.42 15.23a145.63 145.63 0 01-18.35 8.11c-8.33 3-17.41 3.7-21.5 13.77-3.42 8.42-1.09 15.28-5.37 23.68-4.15 8.13-3.51 9.68-4.57 18.66-2.09 17.75-11.59 3.76-23.8 8.92-9.48 4-9.07 23.31-9 32.79.15 17.35 1.57 35.57-.87 52.78-2.72 19.17-13.43 25.48-25.2 40-5.75 7.09-10.15 18.56-20.28 20.08-7.71 1.17-20.13-5-28.71-5.33-6.11-.26-12.26-.36-18.2 1-16.64 3.91-22.31 18.66-36.45 26.26-6.82 3.67-13.38 3.17-20 5.38-4.75 1.59-9 5.6-13.55 8.19-27.21 15.36-54.75 29.79-83.34 42.84-9.54 4.35-15.68 8.45-24.36 13.53-5.39 3.15-8.35 1.43-12.86 6.65-6.14 7.1-10.15 22.56-15 31.32-7.4 13.44-12.48 27.6-18.75 41.52-4.52 10-12.41 17.73-14.36 28.71-1 5.64-2.19 22.71 1 27.45 3.61 5.3 12.61 7.2 16.55 13.77-3.59 4-8.18 4.78-13.12 5.75-12.13 2.37-23.08 1-35.34 5.47-21.79 7.9-46.44 10.12-66.91 21.12-12.44 6.68-21.8 18.27-31.7 28.27-7 7.06-6.77 8.07-11.18 16-4.83 8.6-11 13.55-17.08 21.26-10 12.67-3.12 27.39-5.12 42.16-1.61 11.92-4.77 24.21-7.23 36-1.72 8.24-5.36 24.15-2.33 32.74 3.73 10.6 20.37 13.52 30.11 16.82 10.86 3.67 26.56 5 34.41 13.41 10.17 11 12.74 31.11 16.25 44.9 3 12 8.32 22.7 11.58 34.42 1.64 5.88-.25 13.92 5.24 18.24 1.36 1.08 17 4 18.09 4.19 6 1.17 24.2-2 28.35 1.76 4.66 4.17-.84 21.77.47 27.57.89 4 3.53 4.67 4.8 8.8 3.45 11.26 3.77 24.56 6.67 36.23 3.9 15.72 12.52 27.54 17.41 43 10.3 1.82 33.69.15 40.64 9 3.65 4.67.74 13.85.67 18.94-.12 8.93.09 22.52 4.71 30.14 6.27 10.06 4.72 25.24 28.24 26.4z" fill="#0f0"/>
</svg>
