<svg data-name="Layer 1" xmlns="http://www.w3.org/2000/svg" viewBox="0 0 1989.8 1958.36">
  <path d="M1582.45 916.81c0-12.83.59-25.78.09-38.6-.84-21.57-7.7-41-7.6-62.76 0-8.79-.14-17.58 0-26.37.11-7.7-2.34-11.8-3.74-18.76-4.64-23.07-8.27-48.3-16-70.84-7.28-21.27-21.09-39.9-28.36-61-5.46-15.83-8.25-28.13-8.26-44.82 0-8.35 1.58-18.26.09-26.46-1.55-8.51-6.64-14.51-10.62-22.77-4.47-9.26-4.12-11.12-15.79-11-6.26.09-12.52 0-18.78 0-7.69 0-14.66 0-21.47-.65-1.18-6.05-2.62-12.06-4-18.33-2.26-10.28-2.23-19.5-5.51-29.87-6.66-21-14.06-43.81-21.52-64-3.14-8.51-9.08-12.35-14.3-19.52-4.2-5.78-8-15.08-11.28-21.71-2.72-5.47-3.24-7.47-7.4-12.22-3-3.43-3.66-5.29-5.64-9.39a159.56 159.56 0 00-15.55-25.51c-12.79-16.94-22.88-38.91-32.35-57.91-5.3-10.62-6.42-23.39-11.29-34.21-1.77-3.93-2.21-7.21-3.57-11-2.27-6.34-7-10.7-9.73-17-9.27-21.35-25.84-38.14-28.68-61.32-4.06-.17-7.27-2.71-10.63-4.4-4-2-7.63-2.09-11.38-3.65-5.94-2.48-11.85-5.62-17.75-8.56-7.38-3.68-10.79-6.7-19.74-6.57-8.51.12-18-1.18-26.38-.1-6.48.83-10.62 5-16.14 7.09a38 38 0 00-9.51 1.45c-6.42.11-13.53-.84-19.34-.92-7.33-.11-16.54 2-22.71 5.44-2.43 1.36-5.75 5.06-8.65 9.33-5.07 3.16-9.57 7.71-14.5 10.59-7.93 4.64-17.75 5.07-25.54 9.19-5.58 2.94-14.65 8.5-18.48 12.79s-6.9 12.33-10.56 17.46c-5.82 8.18-7.9 15.56-15.8 20.58-5.28 3.36-11.14 3.51-15.69 8.55-3 3.38-3.3 5.89-7 8.55-6.45 4.71-15.52 6.37-22 11.09-7.39 5.41-13.29 15-19.64 21.7-11.19 11.77-16.24 28.35-26.95 40.5-4.3 4.87-12.26 8.4-18 11.17-10.38 5-9.24 5.18-12.12 15.15-3.57 12.34-13.5 24-20.86 34.85A66.9 66.9 0 00881.48 396c-1.36 3.79-1.22 7.91-2.59 13.49-5.28 21.44-16 43.2-25.46 64.08-4.63 10.26-1.51 18.72-3.57 30-1.63 8.84-6.57 15.22-11.47 22.37a198.82 198.82 0 00-14.1 23.57c-1.72 3.49-4.19 6.59-5.73 10-3.23 7.06-2.81 14.87-5.45 22.18a129.72 129.72 0 01-9.77 20.22c-8.39.93-17.12 2.35-25.08 3.81-10.42 1.9-20.08 5.91-29.13 10.8 1.24-8.38 2.06-16.85 2.83-24.73 1.2-12.27 6.32-24.1 7.71-36.51 1.05-9.43-.41-19.62-.28-29.13.13-10.22 2.48-19.4 3.52-29.54.6-5.86 0-11.53.17-17.4.22-7.34 3.25-13.71 4.1-20.87.67-5.64-.66-11.58-.33-17.25.39-6.86 3.4-12.74 4.09-19.5.4-3.86-.35-7.94-.28-11.83.13-7 2.33-12.16 3.52-18.85 2.76-15.38.32-33.15.32-48.84 0-7.67 2.2-19.23.18-26.64-1.38-5.12-10.22-17.2-15-18.86-3.92-1.36-9.36 1.31-13.48.4a11.34 11.34 0 01-5.13-2.48 30.22 30.22 0 00-.93-4.62c-5.34-.47-8.59-3.06-12.92-4a34 34 0 00-8.26-.32 5.61 5.61 0 00-.62-.19 24 24 0 00-7.22-.45c-4.7-1.12-8.36-3-13.64-3.16-5-.17-10 .1-15 .05-13.37-.13-24.95 4.61-37.6 7.18-9.31 1.89-20.46.32-30 .33-11.17 0-16.77-.26-26.2 5.14-7.05 4-15.4 10.91-22.94 13.28-11.62 3.66-24.14 3.25-35.5 8.83-4.2 2.06-8.52 5.25-13.06 6.28-4.38 1-8.8-.65-13.16.09-4.66.8-8.5 3.31-13.19 4.07-6 1-6.58-1.32-10.46 3.38-5.72 6.92-1.5 18.63-2.56 26.66-.65 4.91-3 6.58-4 11-1 4.23.81 9-.13 13.35-.86 4-3 7-3.56 11.14a62.66 62.66 0 00-4.54 9.33 252.73 252.73 0 00-9.53 38.62c-3.17 19.93-4.36 39.7-7.52 59.79-1.51 9.63 1 19.66-.64 29.11-.8 4.61-3.27 7.89-4.15 12.54-1.12 6 .35 12.47-.65 18.61-1.35 8.23-4.52 16.56-5.83 24.72-2.28 14.11-4.28 25.94-9.38 39.36-3.89 10.23-.15 19.52-2.54 29.42-1.1 4.58-3.35 5.79-4 11-.64 4.9.45 10.18.18 15.12a19.79 19.79 0 01-.51 3.42 22.09 22.09 0 00-1.78 5.49 32.28 32.28 0 00-1.76 6.12 61.42 61.42 0 00-.58 7c-1.23 1.14-8.86 3.49-10.49 4.3-9.75 4.81-15.56 9.92-23.48 17.85-3.06 3.08-6.77 5.92-9.52 9.27-3 3.69.45 4.39-4.3 6.89-3.7 1.94-11.07 1.15-15.49 3.58-8.55 4.68-18.57 12-25.18 19.72-4 4.62-5.17 8.3-7.53 14.19-.67 1.68-3.49 6.9-3.84 8.25-1 3.62.16 7.17-.64 10.64s-3.38 3.69-4.18 7.1c-.61 2.65-.13 5.29-.26 8a70.15 70.15 0 00-2.19 7c-1.88 3.63-4.44 7.54-5.06 11.51-1.16 7.47-1 15.56-3.46 22.74-2.38 6.9-7.17 10.23-7.68 18.58-.46 7.34 2.19 10.6 3.93 16.82 1.67 5.93 1.94 10.08 4.58 16.09 4.86 11 4.43 23.8 10.35 34.74 3.18 5.88 3.87 7.83 3.75 15-.06 3.55-.54 7.84-.08 11.35s2.48 5.74 3 8.26c1.19 5.61-.34 11.69 1.59 17.12 2.1 5.93 7.78 13.48 10.51 19.82 3.95 9.18 10.33 17.84 14.11 27 5.73 13.87 13.4 19 22.56 30a124.36 124.36 0 0011.75 12.31 42.56 42.56 0 01.44 7.52c-.1 6.65-.93 14.19-.08 20.76 1.05 8.11 6.11 14.6 7.79 23.11 2.09 10.56.68 24.36-3.95 33.26-4.28 8.23-3.22 12.3-3.67 21.63a69.62 69.62 0 01-7.59 27.22c-9.39 18.69 3 33 6.65 52.34 4 21 1.45 47.67-3.73 67.91-4.54 17.74-1.84 36.1-2.8 54.73-.48 9.4-4.79 19.1-7.65 28-2.42 7.6-7.89 13.74-6.75 21.52 1.08 7.4 10.86 13.69 13.51 20.46 2 5 .77 12.37.76 17.76 0 9 2.39 18.8-3.67 25.75-4.68 5.36-10.76 9.83-15.23 15.81-7.69 10.29-13.73 23.65-15.12 36.53-.41 3.84.61 8.22.49 12-.3 9.33-5.3 15-7.17 23.31-2.15 9.55 1.79 16.54 3.23 25.86 1.72 11.14 3.67 19.41 8.35 30 4.93 11.23 11.87 21.1 15.2 33 3.05 10.86 4.91 17.54 11 27 7.35 11.36 15.2 22.68 20.86 35 5 10.88 8.88 21.42 19.63 28.27 7.89 5 17.58 7 25.47 11.93 4.79 3 6.42 6.74 12.09 7.89 2.26.46 4.76-.19 7.19-.52a82.12 82.12 0 015 7.67c2.68 4.92 7.71 11.29 9.61 16 .83 2 0 5.25.63 6.8.88 2.08 3.2 3.86 3.54 5.85.71 4.14-.83 9 .13 13 .38 1.62 2.94 3.55 3.11 4.4 1 5-1 13 1.6 17.19 3.11 5 7.31 4.1 12.35 4.52 6.9.58 10.07 1.62 16.12 4.8 6.45 3.39 9.23 6.27 14.85 11.26 5.36 4.77 10.29 6.32 17.6 6.63 11.32.47 19.89 5.38 31.43 2.78 1.11-.25 7-2.52 8.35-2.92 1.63-.47 5.93-1.5 7.52-1.89 4.58-1.12 10.58-2.06 15.22-4.61 3.65-2 11.33-6.35 14.2-9.37 1.27-1.34.33-4.4 1.46-5.84 1.59-2 3.94-3.71 5.77-5.53 8.75-8.74 19.22-13.42 31-16.93 10.74-3.21 21.3-10.78 30.2-17.84 15.8-12.53 16.43-32.82 33.5-44.14 9.56-6.34 20-10.92 28.83-17.72 8.22-6.35 17.12-14.67 25-21.75l1.24-1.09q3.78-1.91 7.57-3.77 11.79-6.4 23-13.82c7.73-2.3 7.86.22 15.76 1.91 13.6 2.91 28 2.87 41.84 5.48 14.22 2.68 27.83 1.52 42.25 3.59 4.42.64 14 1.53 17.5 3.84 4.7 3.11 3 5 8.07 7 11.81 4.6 33.27-6.91 44 .37.08 0 3.54 7.06 4.08 7.71 3.38 4.12 10.59 8 15.11 10.44 7.45 4 15.47 7 22.81 11.14 4.7 2.68 10.12 7.9 15.31 10 9.63 3.87 19.27-1 29 1.12 6.7 1.45 9.5 6 15.49 8.92 6.78 3.31 13.13 1.4 20 2.44 8.78 1.33 16.23 5.39 25 7.07 12.11 2.33 25.23.62 37.49.72 30.1.23 59.27-9.45 89.08-11.47 16.14-1.09 30-8 46.1-10.32 8.53-1.25 13.8-2.37 21.33-6.91 24.16-14.58 40.82-36.74 65.84-50.19 13.63-7.32 26.43-19.48 37.48-30.24 7.1-6.91 10.19-6.29 18.81-8.28 7.15-1.65 16.55-5 21.69-10.34 3-3.07 3.5-6 7.43-8.73 2.27-1.55 5.58-2 7.62-3.49 16-12 8.24-39.78 3.56-55.42-3.53-11.81-2.78-19 .2-30.16 2.61-9.76 1.69-20.73 3.75-30.81 2-9.77.21-19.58 1.69-29.4.73-4.84 2.2-10.39 3.23-15.27 1.39-6.57 5-12.29 6.56-18.78 1.31-5.5.3-10.56 1.26-16.09 1.58-9.08 6.49-17 7.17-26.35.35-4.77-.51-9.74-.37-14.54.32-10.38 4.61-19.24 6.77-29.33 4.12-19.31 8.69-36.62 8.44-56.82-.17-13.55-3.09-26.54-3.64-40.11-.42-10.49-3.65-20.55-4.17-31-.36-7.14 1.61-14.59-.54-21.61-3.35-10.88-9.34-17.14-6.92-30 2.1-11.2 13.19-16.69 15.54-27 1.41-6.21-2.29-17-4-22.66s-4.48-10.36-5.74-16.72c-1.52-7.75-3.13-16.23-2-24.51 1.08-7.62 6.31-11.41 10.31-18.71 4.87-8.9 8.8-12 8.54-22.54-.19-7.78 1.12-11.8 2.94-18.79 4.45-17-1.77-35.41 3.56-52.52 2.69-8.62 3.13-19.69 9.31-26.37 4.81-5.19 12.25-7.32 18.11-11.3 9.86-6.69 18.57-19.07 23.5-29.6 4.31-9.59 2.62-20.41 2.58-30.6z" fill="#2300ff"/>
</svg>
