<svg data-name="Layer 1" xmlns="http://www.w3.org/2000/svg" viewBox="0 0 1989.8 1958.36">
  <path d="M1862.77 833.58c-6-5-15.75-6.24-21-11.77-7.22-7.59 1.26-18.09 1.3-27.54 0-12.43 3.79-15.51 9.92-25 4.48-6.93 5.51-23.33 3.42-32-1.31-5.41-3.91-6.65-4.7-12.78-.65-5 .9-10.07-.27-15s-3.79-7.34-4-13.44c-.21-5 0-10.18 0-15.24 0-14.41-.08-28.82 0-43.23.12-21.87-4.45-42.23-4.35-64.21 0-5.63 3.63-31.94-.67-36.24s-28-.66-34.31-.66c-9.86 0-21.09 1.5-30.59-1-12-3.11-22.17-3.4-35-3.4-9.65 0-23.69 2.61-33 .21-12.27-3.18-6.8-14.59-11-23.92-3.06-6.71-12.9-9.2-19.16-11.8-10-4.14-19.43-8-29.13-11 3.29-10.21-9.56-21.7-15.35-29.77-7.5-10.47-15-19.67-21.11-30.93-5.24-9.73-12.47-19.67-18.85-28.75-8.52-12.13-16.53-25.4-26.23-37-18.07-21.61-39.31-40.71-57.16-62.13-17-20.39-20.2 19.82-35 16.45-.63-5.52-3.32-10.32-4.43-15.73-12.72.34-4.93-17.27-19.15-5.54-9.3 7.66-19.57 14.06-28.52 22.05-15.93 14.24-31.65 26.94-50.88 35.72-10.38 4.75-15 3.3-22.18-7.64-6.87-10.53-8.76-18.73-20.93-26.28-16.25-10.07-32.23-19.78-48.07-30.41-8.85-5.93-17.42-11.73-26.62-17.3-9.4-5.69-16.52-12.85-26.76-17.32-26.2-11.43-48-29.35-71-45.79-18-12.82-37.57-21.62-54.15-36.45-11.07-9.9-22.84-18.44-33.69-28.65-4.92-4.65-11.2-9.21-17.91-10.82-5.46-1.31-9.74-1-13.66 2.43-2.42 2.11-5.17 9.87-7.33 12.85-3.62 5-7.24 9.24-10.39 14.48-6 10-10.25 20.91-16.06 31-5.71 9.91-8.73 13.84-19.78 9.14-5.49-2.33-11.62-4-16.9-6.66-4.1-2.07-6.08-5.32-11.28-5.92-15.37-1.77-14 30.24-30 31.55-8.46.69-19.11-6.63-28.49-6.74-7.85-.1-15.8-.15-23.63 0-9.82.22-24.8 3.63-33 8.58-5.62 3.41-2.47 6.48-9.34 2.22-3.52-2.18-5.1-5.32-5.81-9-.93-4.78.73-9.44-.62-14.22-.44-1.57-2.2-1.48-2.74-3.85-.73-3.18.77-6.25-.31-9.58-9.12-.92-15.75-5.29-25.5-6.7-12.46-1.81-25-5.73-37.33-7.15-5.4-.62-9.93.73-15.22-.56-2.2-.54-6.64-2.55-9.64-3.36-8.5-2.32-14.89-2.5-23.88-9.08 0 20-3.92 41-12.36 59.48-4.18 9.16-4.23 17.25-6.61 26.95-2.29 9.31-3.15 19.12-6.49 28.18-8.39 22.81-14.71 45.75-17.48 70.19-.82 7.25-1.8 14.32-3.19 21.33a31.44 31.44 0 01-2.82-2.65c-2.07-2.26-.78-4.12-3.62-6.63-3-2.69-5.27-1.85-7.73-5.52s-1.16-6.44-2.24-10.22-4.91-7-5.94-10.46c-2.07-7 .59-14.62-1.49-21.59-1.13-3.8-4.67-8.14-6.26-12.15-2-5.16-3.35-10.34-6.19-15a142.59 142.59 0 00-9.79-13.12c-4.55-5.72-8-11.77-12.45-17.46-7.16-9.12-16.79-21-27.92-24.73-4-1.34-8.5-3.37-12.27-4.21-3.28-.73-6.16 1.24-9.41-.48-2.15-1.13-4.68-5-6.44-6.75-3-3-7.45-5.59-10-8.91-4.39-5.79-5.73-14-9.8-20.09-6.41-9.54-16-17.65-24.47-25.22-9.5-8.56-19-16.22-28.26-24.88-16.25-15.28-39-18.45-59.5-25.54-9.1-3.15-18.06-4.74-27.18-7.42-5.75-1.69-10.81-4.26-16.15-5.87C369 94 361.92 93.6 355.39 92c-2.46-.6-3.83-2.27-6.59-2.74-4.53-.77-8.7 1-13.26-.5-7-2.3-9.34-9.76-15.67-13.5-2.87-1.69-7.09-5-10.46-5.78-12.83-2.92-29.75.45-43 .18-8.09-.16-8.19-.92-9.89 6.44-2.24 9.7-2.29 19.77-4 29.64-1.84 10.47-1.89 19.74-2.4 30.21-.4 8-3.05 15.7-3.64 23.69-.64 8.67 1.28 17.65.34 26.29-1.83 16.71-3.47 32.2-3.47 49.24v40.67c0 19-2.21 39.38-.17 58.23.51 4.66 2.82 8.06 3.64 12.53.72 4-.17 9.05-.17 13.11v19.77c0 9.4-.64 14.35-4.21 22.89a86.4 86.4 0 00-6.23 22.71l-5.49 1.11c-1.74 8-3.61 16.43-9.2 22.76 8.31-.81 14 2.73 21.83 3.12 10.1.51 14.59-1.79 16.64 10.48 1.54 9.21-2.53 18.39 2.17 26.5 4.32 7.46 11.34 6.2 19.1 5.83s13.64-3.38 21.42-3.32c8.09.06 12.53 2.42 19.69 3.35s12.88-2.64 19.71-4.08c7.68-1.63 16-2.4 22.4-5.56 6.61 10.28 10.88 16.31 23.91 16.16 11.33-.14 22.34-1 32-7.22 7.09-4.58 8.81-5.61 17.28-5.87 8.15-.25 15.35-3 23.22-5.06 7.67-2 15.51-2.49 23-4.19 9.1-2.07 18.8-2.55 28.1-4.43 16.05-3.23 31.82-2.77 47.72-6.19 9.7-2.09 19.47-4.1 29.2-6.31 0 2.62.53 5.88.54 9.61 0 6.55.43 13.25.08 19.78-.44 8.09-5 14.06-2.89 22.59 5.92 1 9.73 2 15.17 4.6 7.17 3.47 8.38 4.68 5.8 12.37-4.93 14.64-12.34 29.41-16.57 44.52-3.12 11.12 1.75 7.5 10 5.22 5.81-1.6 11.87-4.43 18.18-3.67 6.78.82 10.78 4.82 16.52 9.2 6.5 5 10 6.16 17.94 7.24 5 .67 14.42 2.65 17.4 7.27 2.26 3.51.91 8.49 3.78 12.11 3.46 4.35 6.74 4 11.82 3.83 6.54-.26 9.87-3.09 16.41-3.38 7.57-.34 12.06-.42 18 4 12.4 9.23 21.18 18.62 34.87 25.33 5.94 2.91 11 6.7 18 7 7.4.35 14.49.15 21.42-1.73 7.38-2 10.41-2.33 16.76 1.53 6.6 4 10.19 9.29 17.78 10.09 5.67.59 14.28 1.09 19.86.09 9.31-1.67 18-6.4 27.76-6.89 7.16-.35 14.63 1 21.75.19 8.21-1 11.88-8.83 17.77-15.05 5.48-5.77 8.33-4.93 16.75-4.82 10 .14 9.2 4 15.5 10 5.22 4.93 12.19 3.22 19.12 3.23 3.28 0 6.61-.2 9.89-.06 5.87.25 6.55 2.44 11.53 4.73 7.09 3.24 14.57-.19 20.68 5.08 6.3 5.43 8.31 14.71 12.65 21.56 3.76 5.94 7.31 11.51 9.52 18 3 8.82 1.74 15 11.46 16.59 13.85 2.26 23.55 12.89 38 13.23 4.13.1 9.15.66 13.19-.28 4.23-1 7.44-4.45 11.55-5.67 10.15-3 20 3.93 29.71 6 7.58 1.62 15 4.61 23 2.48s14.46-2.51 23.07-2.56c3.59 0 8-.82 11.42.16a24.71 24.71 0 015.2 2.28c-2.22 10.57-7.23 19.5-13.08 30.34-7.24 13.42-18.64 21.69-27.78 33.61-5.79 7.54-5.56 10.94-5.87 19.83-.28 7.93-4.16 14-4.59 21.85-.48 9 6.17 39-8.65 39.78-2.67.14-3.68-3.56-5.35-3.85a65.33 65.33 0 00-12.12-.93c-7.49 0-9.41 1.91-15.3 4.34s-7.83 4.36-15.31 4.37c-13.87 0-16.36 2.78-25.34 13.34-2.77 3.25-6.59 9.87-10.47 12-5.13 2.87-11.12 2-16.61 5.24-12.61 7.51-6 18.65-14.1 29.61-8.87 12-22.27 17.43-33 27.08-6.44 5.78-10.3 12-18.46 16.61-8.52 4.78-15.06 3.13-23.67 5.69-6 1.78-10.73 9.23-15.68 12.89a194.15 194.15 0 01-18.43 12c-4.42 2.5-7 1.68-11.3 5.21-1.39 1.16-2.84 4.29-4.13 5.69-4.39 4.77-9.89 8.75-14.1 13.65-11.55 13.48-14.9 31.88-24.15 46.34-1.77 2.77-3.42 5.54-4.87 8.33-9.51-1-18.54-3.61-28.06-4.18-7.84-.48-18.93-1.43-26.69.55-12.3 3.15-17.32 14.15-26.58 21.11-11.41 8.57-24.22-.7-34.51 5.21-6.39 3.67-4.79 13.07-9 17.51-5.09 5.39-15.06 6.9-22 7.91-8.55 1.24-17.55 2.65-25.5 3.88-9.73 1.51-20.38-3.93-31.39-3.53-5.84.21-11.93 1.86-17.35-.91-12.14-6.19-11.46-27.26-25.24-30.25-4.85-1.06-12.53.95-17.64.71-8.44-.39-18.09-5.47-25.89-.64-3.14 24.4-17.59 44-33.09 61.5-8.32 9.38-10.84 22.06-17.12 32.59-2.22 3.71-4.57 4.79-6.8 7.51-5.75 7-6.83 10-8.84 19.08-2.4 10.93-3 22.84-9.43 32.49-6.62 9.91-13.66 10.59-22.28 17-20 15-23.18 45.47-35.29 66.21-6.78 11.61-16.88 22.47-19.8 35.92-3.2 14.79 7.12 45.91-4.8 57.1-10.73-7.89-8.8 13.55-12.11 17.06-3 3.14-6.66 1.91-9 4.35-9.77 10.2-6.9 40.53-26.5 39.1-2.89 8.06-.15 18.3-.34 26.78-.24 10.83-3.31 17.71-6.52 27.62-2.2 6.77-2.61 12-2.56 19.47.05 8.4-1.66 18.31-.21 26.45 1.4 7.91 6.22 14.5 10 21.74 13.64 25.94 43.8 38.54 64.47 56.83 21.48 19 42.63 38 64.62 56.8 6.15 5.28 11.71 12 18.4 16.62 9.09 6.27 19.8 7.83 26.9 16.92 5.43 6.95 5.42 20.9 12.31 25.77 5.54 3.92 16.51 1.56 23 2.15 11.5 1.06 27.38 8.31 38.53 3.33 7.26-3.25 8.92-12.23 11.65-18.67 5-11.66 8.4-20.84 11-33.1 3.94 1.48 3.88 5.93 7.56 8s7.73-.33 11.31.57c6.27 1.57 12.28 7.86 16.89 13.24 7.47 8.7 11.14 21.85 23.49 25.7 8.21 2.56 18.23.33 26-2.41 6.44-2.27 10.6-7.36 16.16-10 8.61-4.11 1.51-4.66 11.23-.32 4.66 2.08 4.69 4.85 10.58 4.4 2.53-.19 3.84-3.68 6.71-4.43 8.14-2.12 15.61 1.86 23 3.63 3.88.92 20.72 3.52 24.4.6 3.43-2.72 6.28-20 7.31-22.74a156.16 156.16 0 017.53-15.71c7.48-14.61 13-26.58 17.07-43.08 1.73-6.89 2.18-13.86 6.34-19.47 7.8-10.53 29.71-30.12 43.57-23.45 14.27 6.86 19.71 31.48 37.69 28 13.53-2.62 23.92-11.44 39-8.31 4.56 1 7.83 3.47 12 3.82 6.23.53 11.55-3.65 18-3.08q.46 3.75 1 7.5c6.24 2.23 19.77-2.9 24.75 1.51 3.66 3.24 6.26 16.62 8.4 21.2 4 8.6 4.27 18.82 9.53 26.12 7.57 10.49 16.29 17.62 22.49 29.81 6.78 13.31 12.43 23.26 25.45 32.23 16.7 11.51 28.76 19.28 39.26 36.3 6.37 10.32 14.39 18.66 22.39 28.29 5.69 6.84 10.45 14 16.38 20.64s8.54 15.84 13.88 22.28c8.27 10 10.71 2.69 22.18.67 7-1.24 15 2.42 21.79-.44 6.45-2.72 11.28-9.43 18.18-12.47 8.43-3.71 17.69-5.55 25.26-11.07s10.2-12.19 15.17-20c8.49-13.39 19.58-22.26 20.28-38.43.53-12.15-3.11-27.4.2-39.15 8.68-2.45 27.61-2.39 36.63-.2 6.54 1.59 9.32 4.08 17.63 4 25.58-.26 51.24-.4 76.81-.09 7.54.09 18.26 1.11 25 5.33 2.33 1.47 4.64 6.09 7.33 8 3.42 2.44 8 3.87 12 5.33 6.47 2.42 19.12 3.66 24.38 8.43 6 5.45 4.77 13.81 6.12 20.75 5.61.55 11.89-10.75 18.87-12.44 7.62-1.83 14.78.11 21.9 1.85 7.42 1.81 14.24 2.07 20.63 5.29 10.22 5.15 9 15.1 16.3 21.7 10.22-3.56 17.44-9 27.11-13 13.48-5.6 27.92.47 41.1-3.4 7.82-2.29 11.86-9.07 19.34-11.84 7.68-2.84 6.65-.41 14.17-6.27 6.63-5.16 7.08-6.64 14.53-8.12 6.47-1.29 7.34 2.67 11-3.52.72-1.2-.33-12.56-.33-12.46-.12-11.34-.44-22.83 0-34.15.45-12 6.37-14.23 17.54-19.68 9.37-4.58 20.12-1.74 28-6.68 4.06-2.53 6.64-6.6 11.3-9.39 3.47-2.09 4.69-2 7.77-5.35 2.15-2.31 2.79-6.64 5.21-9.19 2.81-3 7.8-3.91 10.15-7.32 6.07-8.76 8.14-25 7.55-36.15-.81-15.33-12-15.71-25.43-21.77-8.37-3.79-15.94-7.08-14.29-17.58 2.39-15.22 12.19-27.23 9.26-43.71-.83-4.66-3.75-8.14-4.73-12.78-.89-4.21.57-9-.61-13.43-3.21-12-6.62-16.48-17.17-17.58-17.82-1.86-52.7-4.3-69.28 2.64-5.22 2.18-11 9.41-16.93 5.51-1.12-.74-1-6.26-1.75-7.09-5.23-5.63-8.46-4.09-15.53-6.32-11.22-3.53-9.42-16-22.73-16.71-15.32-.83-24.8 10-39.21-.69-7.92-5.87-12.32-13.42-18.91-20.08-4.18-4.22-9.31-4.39-13.23-8.31s-4.17-9.13-8.31-13.23c-6.55-6.48-14.51-11.89-21.07-18.68-17.17-17.78-26.49-38.51-48.34-52.43-11.18-7.12-22.54-15.2-34.59-20.79-1.66-.77-7.29-2.49-9-4-6.14-5.34-3.76-11.7-7.43-18.35-2.73-5-5.63-6.48-9.63-10.13-4.68-4.28-18.06-14.06-18.23-21.21-.08-3.19 7.32-12.83 9.23-15.24 3.18-4 6.46-6.19 8.79-10.67 8.46-16.24 17.28-31.35 34.53-40.74-4.08-7.58-.92-15-4.27-22.52-2.73-6.16-11.18-9.82-15.12-15.62-2.23-3.28-2-7.2-5.1-10-3.77-3.48-5.74-1.23-10-2.85-4.57-1.72-17.64-10.91-17-16.62 4.58-2 5.91-7.14 9.28-9.08 2.66-1.54 5.4.39 7.9-.61 4.27-1.71 8.77-3.47 13-5.48 5.89-2.81 9.15-6.36 15.17-7.89 7.51-1.91 9.16 2.48 11.26-6.24 2.63-10.91-5.25-26.33 3.84-33.08 3.68-2.73 11.31-5.86 15.64-8.69a44.2 44.2 0 0115.24-6.55c10.83-2.75 26.45 1.63 34-7.49 1.81-2.18 1.76-5.39 3.53-7.35 1.33-1.47 4.55-1.16 6.31-2.81 4.47-4.19 7.9-14.46 12-19.67 12.63-16 47-8.53 66.54-8.53H1677c20.36 0 47.89 4.81 67.37-.38 8.79-2.35 14.88-11.17 24.43-12.94 5.86-1.09 11.49.8 17.47-.77 5.26-1.37 10.1-2.19 15.34-3.23 11.8-2.33 17.66-12.91 19.62-24.55 2.81-16.7 6.21-33.45 9-50 2.18-13.07-1.47-18-12.26-22.86-10.59-4.73-14.16-8.94-19.74-19.79-10.64-20.7 18.65-28.06 29.63-42.49 2.43-3.18 7-7.43 8.87-10.76 2.26-4.12 1-8.1 2.89-12.32 5.1-11.17 15.8-7.29 23.2-13.88 8.85-7.82 8.6-19.19-.05-26.35zM616 455.51a10.79 10.79 0 01-3.84.77q2.55-.72 5.1-1.49a8 8 0 01-1.26.72z" fill="#2300ff"/>
</svg>
