<svg data-name="Layer 1" xmlns="http://www.w3.org/2000/svg" viewBox="0 0 1989.8 1958.36">
  <path d="M118.2 977.63c5.54 17.08 15.52 31.12 22.21 47.79 5.78 14.39 11.45 28 19.86 41 12.5 19.42 20.56 44.7 27.91 65.33 4.37 12.27 3.09 25.64 10.67 36.45 6.81 9.7 16 10.23 23.47 18.75 17.56 20 37.23 35.54 57.19 53 35.38 30.92 49.82 77.08 75.8 112.9 11.28 15.55 25.83 25.16 29.56 45.46 2.41 13.18-5.23 20.49-13.08 29.22-7.32 8.16-8.22 20.19-4.9 31.2 6.62-2.61 10.85-12.36 17.57-16.17 12.11-6.86 16.4 1.57 20 11.72 2.67 7.44 6.56 20.37 12.69 25.61 4.39 3.77 18.86 7.63 25.83 9.63 17.78 5.11 30.46 10.12 44.34 23.27 15 14.17 34.88 21.4 49.38 37.44 5.82 6.45 10.17 14.4 17.11 19.87 10.35 8.15 15.79 4.6 26 0 19.75-8.88 42.7-1.55 61.77 6 4.77 1.88 7.38 1.9 12.28 4.49a69 69 0 0111.41 7.06 69.71 69.71 0 018 8.19c4.35 5 3.26 7.53 5.73 13 9.79 21.63 30.16 10.16 48.8 14.31 7.65 1.7 15.64 7.42 23.59 9.12 9.87 2.12 22.75-.17 32.9-.17h30.14c11.59 0 33.6 4 44.34-.36 9.36-3.81 9.92-16.63 16.45-23.24 8.46-8.56 21.75-11.06 32.94-8.08 24.59 6.54 52.5 3.63 78.43 3.63 11.17 0 30.9-4.17 41.11.23 5.44 2.36 5.75 7.29 10.07 10.53 4.56 3.42 9.92 4.38 15.32 6.66 9.38 4 18 8.86 23.39 17.65 6.73 10.87 2.17 16.19 17.09 16.39 14.65.2 29.34 0 44 0 7.76 0 15.52-.1 23.28 0 12 .22 9.5 0 16.31-6.88 10.13-10.2 23.75-15.51 35.07-25 10.16-8.49 13.72-19.41 23-29 10.26-10.59 17.94-22.61 28.12-32.83 9.4-9.43 21.49-11.86 31.78-19.64 20.26-15.29 26.55-40.81 47.92-53.87 9.82-6 14.15-4.49 25.57-5.68 9.62-1 19.28-7.91 25.73-15.1 6.28-7 13-18.44 21.43-22.23 9.15-4.09 26.74-.22 37-.23 9.93 0 20.55 2.57 28-4.45 3.42-3.21 3.9-8.07 6.8-11.5 4.83-5.71 10.44-5.21 16.7-7.42 7.94-2.8 10.33-7.63 17.12-12.87 8.92-6.88 20.28-10.92 29.45-17.52 8-5.72 16.85-10.92 24.45-17.29 5.89-4.94 10.29-11.33 16.7-15.81s11.52-5.68 16.1-12.12c9.8-13.74 9.29-24 25.61-32 11.35-5.57 24.27-8.09 36.1-12.62 10.9-4.17 21.45-5.88 31.07-10.6 4.62-2.27 8.44-5.31 12.52-8.22 3.73-2.66 8.2-4.37 11.71-6.89 17.68-12.7 29.3-33.7 45.32-47.64 5.29-4.61 11.18-5.73 15.54-12 3-4.34 3.06-10.17 5.49-14.38 2.56-4.4 6.49-6.7 9.61-11.09 4.67-6.57 6.12-16.44 9.27-23.9 9.75-23.07 14.11-44.64 32.68-62.93 8.65-8.51 18.09-17 23.34-27.8 2.14-4.38 2.39-10.22 4.71-14.49 2.17-4 6.36-6.29 8.42-10.06 2.19-4 1.76-10.66 3.08-15.26 2-6.85 5.45-14.92 8.34-21.44 4.67-10.57 15.19-22.58 2.81-31.54-9.53-6.9-23.45-5.28-34.35-5.57-13.88-.38-18.6-7.15-30-12.9-11.87-6-23.76-3.78-35.4-8-8.67-3.15-20.07-7.47-27.52-12.39-7.13-4.7-10.24-9.24-13.35-17-2.44-6.1-5.45-4.5-1.06-10.64 3.45-4.84 13.83-5.64 18.72-9.1 3.21-2.28 9-6.6 10.59-10.41 2.12-5-.38-10.77 1.85-15.81 1.74-3.95 6.15-5.8 8.48-9.3 2.85-4.28 2.57-11.74 5.55-15.21.66-.77 9.6-4.17 11.17-4.86 5.91-2.63 11.13-4.07 16.18-8.85 7.18-6.79 9.13-15.53 15-23.22 6.37-8.35 12-15.9 19.67-22.72 10.6-9.44 27.13-21.57 34.31-33.36 5.16-8.47 7.79-18.71 13-26.56 6.22-9.35 14.78-14 16.07-26.05.88-8.15 2-22.91.11-30.7-2.93-12.11-15.17-5.11-25.93-7.2-11.63-2.26-18.69-7.51-30.51-1-9 5-18.36 12.61-25.58 20.09s-15.45 12-23.37 18.59c-10.93 9-19.58 20.48-29.92 29.19-12.83 10.81-30.4 14.79-42.76 25.85-9 8.08-15.09 15-27.72 18.33 7.19-11.41 13.9-21.58 17.57-34.92 1.23-4.47 1.55-6.83 3.8-10.33 2-3.06 8.1-4.26 7.26-9.52-2.5-15.63-19.77 7.07-24 8.88-7 2.94-13.71 2.67-20.87 5.88-21 9.45-29.84 28.83-47.11 43.7-8.39 7.22-20.68 11.73-30.43 16.65-5.63 2.84-21.19 14.31-27.46 13.43-1.71-10.4 12.36-13.45 17.52-19.37 2.73-3.11 4.25-10.67 6.07-14.64 2.39-5.22 2.63-10.7 5-15.91 3.51-7.66 8.07-9.78 8.55-19.72.33-6.92 0-14.09-.1-21-.24-12.95 1.45-12.62 8.36-23.38 8.48-13.22 6.62-33.85 5.76-49.08-.88-15.62-7.94-30.86-9.33-46.74-.74-8.36-4.39-15-4.91-23.39-.56-8.88 0-16.57-2.23-25.3s-2.09-14.85-2.3-23.8c-.23-10.26.53-11-9-10.81-9.77.14-19.32 9.47-28.37 12.25-7.48 2.3-15.12-.34-22.59 1.62.06 5.46-1.88 8.54-5.23 12.29 1.36-1.52-12.37 10.28-10.63 9.58-8.16 3.3-17.75-1-26.19 1.41-5.44 19.36-9.43 38.78-15.42 57.67-3.61 11.38-4.32 23.66-8.54 34.87-4.09 10.88-13.21 17.61-17.87 28.51-3.76 8.8-5 27.73-16.12 31.75-12 4.34-10.64-13.6-17.66-20.12-3.45-3.22-13-7.49-18-7.64-3.81-8.26 2.76-15.09 4.21-22.91.79-4.25-.24-9.61-.24-13.91s1-9.74.22-14c-1.26-6.59-6.88-9.91-8.62-15.08-3.72-11 4.14-21.48 9.68-30.88 6.5-11 13.59-23.94 22.2-33.76 9.36-10.69 14.43-23.36 20.48-36.72 7.15-15.79 14.52-30.37 16.79-47.72 2.71-20.67 4.68-39.75 4.69-60.47 0-10.15-1.16-21 .7-31-6.13 8.88-24.63 12.39-34.34 18.11-12.24 7.2-22.69 15.43-34.53 22.26-7.89 4.56-17.55 11.51-22.93 19.06-4.87 6.83-6.13 15.54-11.61 22.38-4.44 5.53-9.69 8.5-14.48 13.29.57-7.67 4.42-31.95-3.66-36.43-2.25-1.24-21 0-23.15.35-7.66 1.19-14.14 5.38-21.53 7.42-5.09 1.4-12.24.68-16.77 2.83-5.19 2.46-10 8.71-14.25 12.43-5.63 5-14.39 15.27-22.37 14.57-3.24-13.73-6.94-25-19.39-32.52-8.5-5.13-5.93-6.4-14.82.45-11.67 9-20.88 22.2-31.7 32.26-11 10.25-19.88 21.33-30.45 31.61-6.2 6-25.41 25.57-34.75 24.72-4.78-15.63 2-33.14-7.35-48.38-4.25-6.93-11.12-9.76-16.58-15.18-14.61-14.53-29.47-27.27-44.4-41.88-8.16-8-13.3-15-23.64-8.77-9.36 5.67-18.65 16.46-26.69 24.15-10.55 10.11-20.26 22.53-35.22 27.67-14.58-11.31-5.37-39.38-21.7-52-7-5.4-17.54-7.3-25.29-12-4.77-2.89-8.81-6.6-13.08-9.33-7.34 14.66-20.37 26-26.47 41.26-5.15 12.89-1.68 28.59-4.26 43.36-2.68 15.27-4.81 30.83-8.3 46-2.61 11.4-2.23 30.14-13.15 37.25-3.52-23.41-4.76-36.13-19.81-54.85-5.82-7.24-11-19.94-17.16-24.42-12.39 31.92-15.43 67.08-23.49 100.51-3.4 14.08-2.53 31.22-7.58 44.44-4.95 12.94-17.44 23-24 35.27-5.82 10.91-8.48 17-19.56 22.28-17.33 8.31-38.26 8.52-56.76 11.8-10.91 1.93-22.89-1.53-33.53 1.49-14.31 4.05-20.11 23.09-36.69 18.11-3.5-12.77 1.06-26.67-.53-39.64-1.24-10.07-6.44-20.15-8.47-30.23-2.54-12.59 6.62-72.87-14.86-70.08-3.08.4-16 13.22-19.28 15.41-3.12 2.08-6.33 3.59-9.37 5.87-10.66 8-18 9.28-18.41 22.37-.41 13.48 2 27.34-2.08 40.33-2.78 8.84-9.66 28.66-16.41 34.62-6 5.25-15.69 2.94-23.47 2.8-11.06-.2-15.79 5.68-26.55 5.1-11.77-.63-25.3-9.73-33.39-17.75-9.91-9.8-7.66-28.85-11.34-42.66-1.23-4.6-3.21-8.06-3.71-12.92-.53-5.1 1.68-11.1.53-16.07-1.59-6.9-6.76-11.45-8.88-18.37s-1.33-14.64-.61-21.69c2.69-26.44 12.36-52.65 19.65-78 5.07-17.67 15.39-34.67 13.1-53.68-29.91 1.75-53.38-28.14-83.37-29.56-4.47-.21-15.87-2.83-19.59-1.24-10.36 4.45-24.17 36.11-28.64 44-11.73 20.62-16.6 43.66-27.79 64.52-6.35 11.83-6.52 21.93-10 34.58-3.72 13.34-7.29 28.3-20.46 17.37-10.73-8.9-15.59-15.16-29.93-14-10.08.81-23.45 8.46-27.55 19-4.86 12.48 5.68 17.38-8.42 25.63-23.28 13.62-44.61 17.13-70.72 16.33-16.72-.51-22.48 3.76-27.24 22.17-5 19.47-.91 42.1-2.74 61.94-1.6 17.23-3.6 34.11-3.84 51.47-.79 56.15.17 112.38.17 168.53 0 14-.12 28 0 42 .05 10.72-3.47 17.78-4.75 9.13z" fill="#0f0"/>
</svg>
