<svg data-name="Layer 1" xmlns="http://www.w3.org/2000/svg" viewBox="0 0 1989.8 1958.36">
  <path d="M943.79 1691.26c13.35.19 17.32-1.15 26.84 9.19 6.39 6.94 8.69 4.87 18.41 5.26 8.28.33 15.35 5.69 23.61 2.9 7.25-2.44 9-9.17 13.41-14.62s9.83-13.08 15.39-17.48c6.41-5.07 14-3.39 21.8-3.35 3.27 0 7.84 1 11 .19s3.83-3.27 6.87-4c6.47-1.55 17.06-.09 23.68.15 8.81.33 16.61 3.37 25.41 3.69 9.24.34 18.6 0 27.84 0h67.26c12.81 0 37.49-4.41 46 4.15 7.81 7.84 9.84 12.87 19.15 18.47 4.4 2.64 14 13.2 18 13.21 2.26-5.66 8-8.67 11-14.1s3-7.35 7.05-11.75c7-7.64 12.13-5.6 21.75-7.17a4.58 4.58 0 014.85-3q7.07.06 14.14.29c6.8.12 12-1.74 18.34-2.92 3.44-.63 10.26-2.74 13.5-.27 3.06 2.34 4.61 8.21 7.6 11.12 10.17 9.91 25 7.57 30.39 21.56 3.56 9.18-.2 21.06 6.09 28.42 5.68 6.64 12.31 7.22 21.81 7.15 4.68 0 9.94.7 14.56.09 4.18-.55 5.93-2.77 9.28-3.4 8.2-1.54 18 1.83 25.87-1 12.49-4.52 26.19-9.71 39.89-12.86 9.63-2.2 17.38-5.64 26.16-9 5.75-2.22 8.73-1.95 14.65-2.64 7-.83 6.36-.74 9.79-7.19 6.77-12.75 14-24.94 23.7-35.62 5-5.55 14-8.23 18.17-14.21 4.75-6.83 2.61-17.93 2.56-26.33 0-3.69-1.61-10.7.63-13.85.67-.94 8-3.1 9.24-3.72 7.29 9.75 24.1 16.74 34.37 11.39 17.83-9.3 6.68-28.73 9.81-44.42 2-10.06 11.85-17.13 14.42-27.23 2.33-9.14 2.4-17.94 3.75-27.26 1.57-10.88 7.89-22.36 11.09-32.93s5-21.51 8.09-32.13a86.83 86.83 0 002.55-13.51c1.09-7.83 5.11-12.76 9.33-19.21 5.3-8.07 9.58-17.09 16-24.22 6.21-6.88 12.38-13.76 18.16-21.21 5.1-6.58 13.87-19.53 21.85-22.67 3.06-1.21 7.73-1.06 11-.62s7.19 3.63 9.27 3.64c7.89 0 15.43-12.32 19.69-18.14 3.38-4.62 9.19-9.57 12.31-14.36 2.26-3.46 1.82-4.55 2.08-9.05.29-5.17 1.54-7.89 2.82-12.7.7-2.64 2.28-8.51 1-11.14-2.09-4.45-5-3-9.39-5.06-8-3.77-9-8.11-8.94-16.4.27-21.6 2.2-40.69 8.13-61.72 3.45-12.22 6.32-20.92 6.32-33.79 0-4.8.75-9.89-.29-14.58-.94-4.28-5.56-8.63-2.85-13.26 2.43-4.15 8.59-3.18 12.25-5.33 4.13-2.43 6.76-6.79 9.14-10.73 4.07-6.73 6.63-12.73 9.72-19.88 2.94-6.79 6.2-13.21 8.25-19.77 1.2-3.81 1.73-7.37 3.45-11.26 2.8-6.35 8.68-12.35 10.51-18.93 5.73-20.63 6-41.45 15-61.19 8.16-17.9 6.74-33.52 7.1-52.8.18-9.45 2.41-18 3.46-27.31.79-7-1.15-14.92 1-21.77s8.57-14.51 12.25-20.78c2.87-4.87 7.26-9.11 8.61-14.61 1.21-4.9.17-10.86.14-15.93 0-9 1.21-18.45-1.64-26.93-3.1-9.26-10.94-18.08-13-27.1-2.24-9.68 2.07-17-3.17-26.32-5.72-10.19-15-16.23-23.72-23.06-9.4-7.39-18-13.87-28.58-19.59-10.32-5.56-19.75-6-30.41-9.88-8-2.9-15.3-8.31-22.54-12.65-9.91-6-10.7-12.14-20.81-6.81-5.3-7.4-10.88-20-11.86-28.5-1.09-9.36-3.61-17.66-3.52-27.24.09-9.33 1.44-19.05-3.54-27.23-4.32-7.09-10.38-10.49-17.38-14-1 12.94-20.2 23.38-28.23 31.94 5.2-13.39 3.09-32.57-2-44.84-3.17-7.65-5.26-15.72-7.69-23.65-1-3.34-2.48-6.71-3.61-10.07-.67-2-2.28-1.28-2.93-4.22-.54-2.4.95-5.25.4-7.64-1.67-7.19-5-10.77-4-19.72.53-4.52 8.71-18.45 7.33-21.41-1.23-2.66-5.18-2-7.33-4.1-3.28-3.15-3.37-8.44-3.57-12.5-.32-6.59-2-17.86 2.63-22.8 4.22-4.48 9-3.62 11.13-10.6 2.33-7.75 4.53-16.28 4.42-24.53-.14-9.76.43-19.56.14-29.3-.3-10.21-4.48-21-7.37-30.57-2.38-7.92-3.72-14.3-3.62-23.47.11-10.55-3.34-15.54-6.44-25.36-4.74-15-9.72-28.55-12-43.34-.59-3.87-1.9-10.9-6.84-11.37-4.62-.43-8.52 8.29-11.94 10.75-2.09 1.5-6 2.85-8.41 4.2-3.57 2-7.25 5.29-10.82 6.88-9.58 4.28-18.21 7.7-26.92 14s-16.68 25.33-28.52 26.2c-4.78-16 1.28-34.92-3.09-51.44-1.67-6.31-2.25-13.34-4.51-19.25-1.63-4.26-2-10.43-3.83-14.45-1.66-3.56-3.94-3.29-6.33-6.22-1.1-1.35-.38-4.3-1.51-5.54-4.11-4.52-8.2-6.65-12.88-1.33-2.8 3.18-3.83 10.78-6.12 14.7s-5.92 7.09-8.35 11.05c-5.22 8.51-10.49 18.21-15.37 27.08-6.09 11.07-7.28 23.3-12.45 34.67-6.24 13.73-13 28-20 41.26-6.61 12.54-14.46 24.14-21.68 36.3-7.4 12.46-13.36 26.17-22 37.83-7 9.41-8.5 9.79-3.35 21.27 3.21 7.15 6.58 12.28.18 19.1-1.57 1.66-5.75 2.39-6.91 4.22-1.64 2.58.32 5.35-.82 8-1.29 2.92-6.84 8.47-9.76 8.91-.23-4-3.37-5.71-4.11-8.91-.88-3.9-.35-8.3-.31-12.36.07-7.56 0-12.72-2.73-19-6.52-14.74-13.3-25-25.32-36.21-10.71-9.94-22.22-18.08-36.17-9.13-9.84 6.33-25.61 10-31.13 20.88-4.17 8.26-5.06 17.79-12.61 24.44-2.78-7 3.14-16.65 3.14-24.5 0-11.86-7.35-20.58-14.56-30.37-7-9.45-14.51-19.79-23.17-27.62-5.76-5.21-13.87-15.85-20.19-19.3-10.65 4.36-16.17 25-21.35 34.57-3 5.62-4.61 10.71-6.86 16.7-1.54 4.09-3.8 7-5.54 10.79-1.28 2.81-3 8.8-5.43 10.85-3.87-10.61-.81-25.64-.81-37.06v-28c0-19.81 5.47-47.41-5.41-64.65-6.64-10.53-5.45-9.32-16.41-10.75-6.69-.87-9.29-4.37-14.08-9.31-4.23-4.35-7.94-8.58-13.11-12-8.25-5.49-6.46-6-13.4 1-5.8 5.83-11.95 12.62-16.35 19.61-2.22-11.48-3.28-21.93-11.83-28.55a92.53 92.53 0 01-9.26-8c-11.59 23.48-19.76 49.2-34.24 71-4.82 7.25-8.75 21.41-14.47 27.72-3.27 3.62-4.81 2.29-9.14 4-22.93 8.93-49.38 24.33-65.55 43-7.26 8.4-15 16.65-22.48 24.91-11.59-21.36-2.83-57.87 1.05-79.45 3.22-17.87 2.11-35.93 2.12-54 0-11 2.12-25-.53-35.71-5.57-.45-12-.18-13.39-6.66 13.94-11.4 17.7-46.21 14.18-62.67-1.15-5.36-4.83-6.48-7.7-10.78-2.06-3.08-2.28-5.56-3.86-8.76-3.27-6.6-8.82-12.41-14-17.5-9.74-9.47-15.59-21-28.35-27.43-9-4.57-16.27-18.25-26.15-19.09-6.48-.54-4.82-.07-9.61 6.49-8.39 11.48-19.53 19.45-29.29 29.54-7.87 8.14-12.36 17.39-18.7 26.84-6.16 9.17-14 17-19.91 26.36-10.87 17.15-8.28 31.9-10 51.64-1.6 18.69-4.43 37.42-6.34 56-1.52 14.77-6.94 29.74-11 44-4.83 17.13-8.61 35.48-12.37 52.87-.86 4 .16 18.45-2.59 20.7-3.67 3-12.83 1.31-17.46 1.09-14.95-.71-28.52-3.77-43.7-3.78-7.36 0-29.75-3.72-35.57.27-8.4 5.76-2.47 22.89-18.09 22.07-3.54 13.82-1.13 32.91.26 47.14 2 20.31.68 41.1 3 61.21 1.08 9.3 2.75 20.77 7.84 29 3.25 5.25 7.46 8.81 10.05 14.67 4.64 10.43 8.58 21.16 13.67 31.41 6.29 12.69 14 25.52 16.13 39.82-28.28-29.54-52.09-60.83-77-92.92-10.08-13-21.6-23.14-29.72-37.51-7.49-13.24-14.36-26.21-20.64-40.06-4.43-9.78-12-15.58-17.3-24.21-7-11.53-12.71-19.73-24.36-27.36-17.58-11.74-42.49-29.27-63.28-19.96-9.22 4.13-18.56 1.52-22.94 11.23-4.59 10.18-2.6 27.89-2.48 38.91a137.24 137.24 0 01-2.77 30.17c-1.62 7.79-3.28 10.69 1.94 17.94 6 8.38 15.15 13.81 20.81 22.83 6.9 11 12.25 22.37 20 32.93 29.37 40.16 45.62 88.27 77.52 126.72-7.18 13.23-12.31 27.36-12.83 43-.56 17 4.16 23.17 17.73 32.45 8.09 5.54 15.79 14 9.62 23.19a62.34 62.34 0 00-9.71 6.31l-8.92 11.63c-3.74 6.15-4.6 12.15-5 19.11-9.61 2-17.39-14.56-24.9-18.75s-14.91-6.19-22.53-11.11c-12.65-8.19-29.41-17.46-43.89-10.33-3.55 1.75-8.76 8.83-13.5 8.31-6.28-.68-7.93-11.54-12.51-14.8-6.91-4.92-25.42-8.38-34.25-8.07-9.1.31-10.9 5-18.46 7-6.29 1.74-12.63-1.29-18.94-2.84-16-3.92-28.81-6.64-43-14.7-10.28-5.84-20.79-9-31.61-13.59-6.33-2.7-10.91-7.07-16.84-10.7-11.88-7.28-25.9-10.74-38.55-16.34-16.1-7.1-31.13-13.2-48.14-17.57-11.6-3-19.9-8.14-30.75-12.3-18.76-7.19-16.09 16.7-18.29 30.31-2.72 16.86-7.74 38.68-2.7 55.73 9.66 32.67 47.89 46.73 75.65 57.49a181.15 181.15 0 0120.8 9 20.53 20.53 0 007 1.78c3.72 2.84 6.13 13.35 8.47 16.76 7.23 10.55 16.1 15.17 28.24 15.29 6.24.06 11.16-.7 16.85 1.95 7.58 3.52 13.58 8.59 21.58 11.72 11.72 4.57 19.2 15.43 29.7 22.7 4.82 3.34 10.26 8.31 16 10.14 8 2.56 16.47-1.46 24.34 1.1.78 3.16 1.88 14.44.71 17.63-1.09 3-3.21 2.7-5.2 5-9.35 10.85-14.12 23.36-20.87 35.76-3.4-1.88-4-5.17-6.85-7.38-6.31-4.92-14.91-4.4-22.35-5.48-14.26-2.06-27.79-6.28-42.21-6.34-11.58 0-23.18.07-34.77.07-12.78 0-27.85 2.32-40-1.67-6.21-2-11.89-6.55-18.69-5.55-8.46 1.24-14.57 10.14-22.1 13.73s-14.79 4.18-23 4.42c-6.93.21-9.53-.17-14.42-3.67-1.24-.89 0-3.32-2.35-4.49-4.45-2.24-14.39 5.18-17.52 7.18-15.9 10.15-29.33 23.59-45.37 33.46-4.76 2.93-8.13 5.77-10.85 10.77-2 3.64-3 10.89-6.59 13.53-6.55 4.87-19.2.15-27 .78-9.7.78-15.3 7.42-22.47 13.21-5.52 4.46-14.34 6-18.93 11.18 11.63 15 26.34 24.16 42.16 34.1 9.58 6 18.37 13.41 29.63 14.24 12.18.9 23.93 2.87 36.14 3.45 18.83.9 18.23 22 18.08 36.66-.14 13.08 1.55 26.59-.91 39.49-1 5.42-3.74 6.68-.62 12.26 2.56 4.58 8.79 7.94 12.36 12.18a59.59 59.59 0 0014.4 12.68c6 3.88 12.53 7.35 18.05 11.92 12 9.93 15.92 25.89 27.24 36.73 13.12 12.55 30.7 21.26 37 39.62-31.27 11.13-61.39 31.1-89.69 49.39-16.08 10.39-34.61 20.28-46.24 35.9a194.45 194.45 0 01-15.47 23.64 57.65 57.65 0 00-10.87 10.58 69.62 69.62 0 0024.64 2.07 82.8 82.8 0 0126.83 5.86c3.52.81 6.61.34 10.12 1.21 6.46 1.59 12.85 5.11 19.58 6.73 6.39 1.53 17.88 1.82 22.86 6.54 12.6 12 .29 35.66-3.32 48.64-5.44 19.56-5.27 36.45 10.91 50.33 15.26 13.09 31.87.37 48.38 7 7 2.79 7.49 10.72 13.24 15 7.66 5.71 21.87 9.32 30.75 13.07 4.77 2 10.42 2.9 13.21 6.75 5.07 7 .85 16.46-4.47 19.93a14.26 14.26 0 00-10.91 6.76 59.93 59.93 0 00-9.68 13.35c-4 5.62-14.06 14.4-15 21.78 18.62 4.72 36.91 7.94 54.76 15.29 12.69 5.22 26.63 3.42 40.12 5.12 19.67 2.49 34.18 6.56 39.19 27.89 1.68 7.15-3.41 22.4 1.08 27.46 2.71 3.06 6.59 3.16 10.27 4.35-.93 9.67-5.75 18.94-8.31 28.27-1.15 4.18-5.6 15.3-3.47 19.68 6.17 12.67 50.16-4.89 60.32-7.72 12-3.33 23.81-7.14 35.8-10.42 26-7.1 55-10.07 77-26.58 14.77-11.07 23.47-25.37 41.43-31.86l29-5.21a240.07 240.07 0 0148.12-6.47c21.28-1.33 41.3 6.07 62.3 5.39 15.24-.49 28.82-5.27 43.29-9.69 31.41-9.59 73.67-26.36 107.24-12.11 7 3 11.08 9.41 17.89 12.94 1.9 1 5.29-.08 7 1.09a38.15 38.15 0 004.46 5.13c4.75 5.44 10.54 9.61-4.31-1.99z" fill="#ff0"/>
</svg>
