<svg data-name="Layer 1" xmlns="http://www.w3.org/2000/svg" viewBox="0 0 1989.8 1958.36">
  <path d="M1881.13 1002.19c0-12 .51-24.14 0-36.13-.29-7.67-2.36-13.88-3.81-21.38-2.31-11.94 0-23.55-4.21-35.19-4.83-13.41-14.73-24.62-21-37.41-6.72-13.76-14.74-26.8-21.28-40.65-9.75-20.7-20.74-38.39-31.92-58-6.47-11.36-5.71-23.21-2.29-36.43 1.73-6.7 2.78-13.35 5.94-19.53 3.59-7 8.08-7.09 6.38-16.77-1.5-8.59-10.13-14.33-14.67-21.59-6.62-10.6-3.06-19.2-4.66-31.33-1.56-11.88-7.19-24.22-9.68-35.92-3.11-14.55-6.55-27.77-15.32-39.65-17.9-24.25-44.16-41.65-60.89-67.87-2.54-4-3.12-9.36-5.81-13.28-3.63-5.27-9-9.25-13.62-14.6-4.08-4.73-9.73-11.34-12.59-16.7-3.6-6.75-4.4-14.93-7.64-22-2.42-5.26-3.84-7.92-4.84-13.75-1-5.52 1-8.53-.81-14.94-1.5-5.41-6.57-9.74-8-14.81-2.55-8.95 1.66-11.7-7.79-16.79s-17.73.27-26.36 5.05c-9.33 5.16-16.69 10.84-25.35 16.78-8.47 5.8-21 8.86-28.45 15.68s-11.44 19.23-16.85 27.62c-8 12.45-18.73 23.25-26 36.15-10.12 17.9-19.84 36.21-29.1 54.61-3.22 6.41-16.1 33.49-22.8 34.56-8.29-12.53-14.09-28-16.77-42.81-8.87 2.9-18.64 21.54-26.65 28.76-13.85 12.49-26.81 22.92-38.78 37.36-7.68 9.27-15.8 18.16-23.62 27.24-3.64 4.21-7 12.3-11.49 15.63 1.26-25.55 7.18-50.7 5.31-76.46-1-13.74-6.13-22.07-13.52-32.82-7.2-10.49-13.76-14.24-23.06-22.17-3.43-2.91-4.9-8.17-8.11-10.79-2.59-2.11-7.55-1.66-10.55-3.63-7.1-4.67-14.51-13-21.74-18.47-5.69-4.3-11.78-8.21-17.66-12.33-4.16-2.92-8-6.86-12.78-8.83-6.26-2.57-12.71.18-18-5.73q-9.37 3.3-12.93 13.72-9.59 9.85-19.38 19.53c-4.25 5.14-8.17 14.2-14.92 14.87-9-19.06-16.84-36.23-29.15-53.33-7-9.76-9.71-21-14.25-32.35-6.37-15.92-11.58-33.16-20.36-47.85-14-23.45-19-51-25.31-77.36-11.21-46.84-33.45-91.72-50-136.25-5.69-15.32-12.89-33.56-24.47-44.36-8.83-8.25-19.33-14.37-28.08-22.79-5.29-5.1-11.5-16.73-19.2-14.84-8.71 2.14-14.7 25.37-19.56 33.14-5.23 8.33-11 16.22-16.49 24.4-9.47 14.25-18.83 28-28.93 41.79-13.42 18.33-27.14 29.86-42.83 45.44-12.72 12.62-22.77 27.6-32.09 42.73-8.9 14.43-22.62 23.4-34.21 35.3C790 293 778.49 301 772.75 311.15c-4.67 8.29-5.76 20.8-8.14 30.1-2 7.8 0 16.29-2 23.56-1.72 6.42-5.34 7.71-5.43 15-.16 14.08 9.8 30.05 16.69 41.38 4.84 8 14.5 18.07 17.53 26.26 2.57 7 3 16.31 5.68 23.88 5.33 15.26 13.34 29.49 18.54 44.8 8.72 25.61 13.07 54.89 19.12 81.49 4.25 18.69 7.43 36.88 10 55.23 2.11 15.18 10.69 33.84 9.43 48.94.64-8.94-9.72-13.87-14.8-20.29-6.55-8.27-10.27-9.93-19.28-15.49-8-5-12.06-8.83-21.55-12.06-7.88-2.68-10.9-6.62-17.28-10.75-3.37-2.19-3-5.1-8.68-2.85-1.12 19.26 6.14 32.67-1.68 52.13-4.7 11.67-9.19 23.09-13.35 35-2.92 8.34-4.76 16.35-9.28 23.77-7.11 11.65-12.76 19.25-17.11 32.18-3.88 11.51-8.87 15.13-7.23 28.3 2.38 19.26 11.93 36.26 21.19 53 4 7.2 12.22 17 14.69 24.25s-2.67 17.82-10.37 21.77c-5.33-15.18-18.52-25-26.08-38.91-5.7-10.44-9.74-20.09-18.28-28.65-24.17-24.25-55.61-36.91-81.83-58-20.57-16.54-42-31.83-62.74-48.15-27.57-21.68-45.65-52.73-72.06-75.56-18.1-15.65-38.13-29.18-56.39-44.75-51.24-43.72-96.53-91-156.81-123.26-7.45-4-14.49-9.27-21.77-13.16-15.07-8.05-36-7.46-52.27-12.5-17.13-5.3-32-15.11-49.59-19.24-11.55-2.7-19.28-9.8-30.14-12.6-3.95 65.23-1.55 131.08-9.07 196-5.73 49.51-.82 100.58-9.63 149.55-3.49 19.42-2.47 40.52 4.2 58.93 9.83 27.19 20.33 60.32 41.19 81.34 28.34 28.54 56.52 56.42 84.09 85.84 21.16 22.58 41.63 47.27 65.52 67 25.49 21.06 50.72 39.25 74.32 62.84 4 4 7.88 8.19 11.69 12.44-4.13 12.63-6.58 24.93-10.88 37.27-3.94 11.28-12.1 19.77-21.33 27.9-5.88 5.18-12.23 9.15-17.66 14.81-6.36 6.64-6.77 15.12-11.74 21.38-14.75 18.58-40.77 39.65-45 63.92-2.68 15.29.25 34 .25 49.6 0 16.77-2.29 33.4 4.78 47.53 16.83 33.68 2.86 60.56-5.34 94-8.47 34.47-45.94 60.45-45.49 95.45.41 31.06-6 68.68 1.47 98.69 3.83 15.38 11.28 31.54 14.95 46.07 4 15.93.71 29 14.69 41.14 13 11.31 30.07 19.93 41.6 32.9s17.64 28.68 32.59 37.81c10.39 6.35 24.4 11.08 35.93 13.45 7.69 1.57 15.34-.71 23.25 1.23 8.33 2 16.18 9.29 23.62 11.11 8.37 2 17.17 1.74 25.78 3.85s15.05 3.39 24.48 3.27c17.72-.23 40.29-3.4 57.77-.32 16 2.82 31.52 11.9 48.79 6.42 15.93-5 21.7-18.35 40-19.25 21-1 33.13-14.43 51-24.66 16.57-9.47 32.38-27.43 51-28.11 31.45-1.14 68 5.78 96-5.58 15.22-6.17 28.51-16.39 42.4-25.56 15.23-10.06 28.6-15.11 45.86-21.4 25.09-9.14 36-27.63 47.43-48.05 5.29-1.21 10.25-3.71 15-9.72 7.76-9.89 12.12-22.54 18.9-33.3 6.08-4.21 12.56-7.92 19.26-12.4 5.06-3.38 8.7-7.54 13.67-11a40.23 40.23 0 0126.3 3.28c7.13 3.58 15.73 3.76 22.08 7.09 5.4 2.83 9.75 11.23 13 15.93 10.1 14.54 23.06 19.27 41.11 17 16-2 27.83-13.54 38.44-25.41 10.07-11.25 14.46-29.31 34-23.15 14.47 4.55 16.7 22.45 33.41 24.45 16.43 2 32.36-3.57 45.92-9.76 4.89-2.22 15.63-9.42 17.49-.31.8 3.92-4.3 8.88-5 12.78-1 5.47 1.25 11.79-.12 17-1.79 6.69-6.83 14.05-9.31 21.21-3.7 10.65-6 21.45-11.46 31.46-3.63 6.64-9.67 13.45-12.31 20.37-2.11 5.54-5.84 17-6.11 23-.44 9.54 6.72 11.42 14.67 14.51 2.58 1 6.14-1 8.82.82 5.1 3.53 3.3 9 6.74 12.55 1.07 1.11 17.82 9.41 19.54 9.62 7.66 1 13.65-4 22.92-3.82 20.88.29 41.79 0 62.67 0h28.94c7.24 0 21.38 3 27.84-.84 5.06-3 13.56-13.19 17.92-18.27 2.65-3.08 4.19-7.08 7.14-10a57.87 57.87 0 019-5.76 54.59 54.59 0 001.88-8.59c5.17-9.7 10.58-18.71 14.74-29 3.53-8.8 5.18-19.23 9.39-27.74 4.06-8.18 7.88-16.93 12.06-25.43 3.21-6.55 8.32-15.91 14.48-20.36 13.12-9.48 30.86-13.57 44.7-22.79 7.85-5.23 11.86-10.09 15.81-19.31 5.26-12.27 4.55-26.29 9-37.94 11.75-3 20.43.94 31-5.27 9.33-5.45 18.64-12.3 27.32-18s14.63-15.12 20.49-23.16c8.4-11.49 7.35-19.86 7.2-34.2-.15-12.77 5-20.4 4.86-33.31s-2.81-22.84 7.78-30.79c6.11-4.59 13.17-9.43 19.3-14.44 1.86-1.51 4.51-1.31 6.46-3 3.35-2.92 6.63-8.33 9.5-11.94 11.08-14 19.42-29.29 26.47-45.66 5-11.57 11-20.36 17.68-30.87 3.23-5.08 11.3-14.64 13.26-20 1.83-5 1.11-9.77 3-14.49 2.15-5.25 5.78-10.75 8-16.47 4.1-10.54 4.48-19.39 4.26-31.73-.38-20.65 7.58-11.15 23-15.58 7.12-2 13.76-8.92 19.07-14.45 7.64-8 23.73-14.32 29.26-24 4.26-7.44 1-24.28 1-32.79 0-12.86-.18-25.73 0-38.58.15-12.21-5-21.6-4.79-33.75.18-14-.8-21.87 6-33.51 12.83-22.02 8.49-48.17 8.49-72.77z" fill="#ff0"/>
</svg>
