<svg data-name="Layer 1" xmlns="http://www.w3.org/2000/svg" viewBox="0 0 1989.8 1958.36">
  <path d="M1821.73 1302.26c-1.87-13-10.56-23-14.84-35.19-6.13-17.44-15.48-30.73-24-47.12-2.63-5.08-5.66-9-8.53-13.75-3.72-6.17-5.87-13.42-9.39-19.34-5.09-8.59-11.65-14.5-16.11-23.78-3.87-8.07-11.2-15-13.11-23.88-2.16-10-.12-26.88 2.25-36.37 3.06-12.27 8.71-22.64 15.88-32.95 10-14.33 25.31-24.51 32.63-40.79 6.21-13.81 10.61-28.51 14.71-43 2.79-9.88 10.66-16.7 12-26.68 4.24-32.77.3-68.11-15.22-97.26-8-14.92-17.45-26.67-27.91-39.69-15.7-19.53-26.29-46.79-46.76-62.47-4.86-3.73-11.18-5.64-16.25-9-6.11-4-10.42-10-15.56-15a168.22 168.22 0 00-38.59-28c-25.19-13.29-53-27.91-80.73-35.09-13.38-3.47-26.31-4.22-39.48-8.44a333.6 333.6 0 00-43.21-10.89c-9.55-1.61-19.76-.52-29.24-.71-14.22-.29-27.65-3-41.73-4-22.84-1.66-47.84 3.72-70.3-1.33-9.26-2.08-11.58-3.32-13.26-11.54s.62-16.57-2.92-25c-7.4-17.75-29.43-37-46.09-45.8-6.44-3.41-12.73-8-19-10.62-5.9-2.45-13.88-.37-17.6-8.12-3.23-6.75 2.29-18.43-.42-26.1-2.19-6.18-9.93-9.56-8.07-17 2.11-8.43 18.46-11.56 24.31-17.07 6.41-6 11.44-12.88 18.76-18.4 14.34-10.83 30.65-15.86 42.18-30.56s10.35-33 9.31-51.07c-.42-7.42-2.28-12.72-4.5-20.05-3.76-12.42-4.23-25.45-8.19-37.76-8.42-26.24-28.56-49.39-42.25-72.84-9.8-16.78-22.82-28.43-35-43.06-7-8.43-11.38-17-19.51-24.41-10.57-9.62-23.27-22.8-35.69-29.7-7.62-4.23-17.16-5.92-25.12-9.11-10.37-4.16-18.77-10.09-30-12a76.14 76.14 0 00-4.25-.59 50.62 50.62 0 013.62-12.81c4.6-10.32 14.82-17.73 17.43-29.55 4.26-19.25-6.45-26.24-22.48-26s-30.55 3.91-46.07 4.23c-11.75.25-23.54 0-35.3 0-28.58 0-61.75-4.74-89.57.85-21.71 4.36-35.61 20-54.31 30.2-12.69 6.79-24 16.35-37.53 21.35-10.14 3.71-21.82 5.75-30.8 12.14-7.27 5.18-8.84 13.94-13.58 20.72a44.39 44.39 0 01-9.11 9.25q-13.34 4.63-26.38 9.82c-10.7 4.25-19.83 11.34-29.71 16.7-6.12 3.33-13.64 4.19-19.58 7.73-6.49 3.87-11.57 10.92-16.84 16.21-15.43 15.5-38.78 36.68-38.38 59.65.23 13.81-4.22 25-4.38 38.27-.22 18-.77 32.66 6.46 49.3 5.66 13 14.53 20 18.74 34.12 5.13 17.15 5.2 35.51 10 52.57 3.59 12.77 11.36 27 17 39.14 6.1 13 12.19 25 17.19 38.38l.33.87a8 8 0 00-1.63 3.17c-1 4.11 1.44 8.09-.61 12.19-1.13 2.24-4.9 4.25-6.62 6.18-2.71 3.07-3.57 6.21-5.81 9.12a31.43 31.43 0 01-14.87 10.73 280.58 280.58 0 00-26.48 10c-8.3 3.49-14 7.06-22.17 9.56-3.18 1-7.08 3.33-10.58 4.36-6.55 1.93-11.65.88-18.33 1.86-18.28 2.67-32.82 14.4-47.88 23.7-6.59 4.07-12.82 8.58-19.07 13.28-8.65 6.49-11.67 10.37-14.11 20.61-2.29 9.59-.95 20.24-.95 30.1 0 7.4-2.58 20.28.85 26.88 6.37 12.28 21.57 21.2 29.1 32.81 5 7.65.46 10.67-2.26 19.24a207.37 207.37 0 00-6.58 25.6c-.71 4.14 1.15 8.65.44 12.8-.89 5.22-3.8 9.47-4.64 14.73-2.1 13.16 3.56 25 4.42 37.49 1.22 17.72 9.44 32.9 15 50.17 7.38 23-15.1 37.25-27.78 54.41-19.73 26.68-43.56 49.45-60.87 77.94-11.05 18.18-16.92 39.28-27.1 57.66-11.21 20.23-16 43.71-27.19 65a287 287 0 01-16 26.48c-9.77 14.62-11.66 31.87-17.07 48.25-4 12.21-5.91 16.1-18.06 20.09-15.28 5-26.45 11.85-40.26 19.89-10.33 6-18.19 14.51-28.23 20.69-15.8 9.72-34.18 12.19-51.13 19.17-28.48 11.72-48.22 30.26-64.1 56.39-12 19.67-1.9 52.78.62 73.6 3.86 32 18.51 48.17 46.51 61.74 6.51 3.15 10.83 8.82 16.93 12.18 5.32 2.93 11.85 3.73 17.43 6.18 11.72 5.13 23.54 10.47 34.95 16s23.38 11.55 32.12 21.19c9.31 10.27 17.42 21.31 30.75 27.46 17.17 7.91 30.12 16.44 43.34 30.31 5.5 5.77 13.12 10.59 16.82 17.47 3 5.58 5 13.49 7.12 19.57 9.38 27.21 21.21 56.31 26.29 84.6 2.58 14.34 1.86 24.3 14.12 34 8 6.32 18.13 14.34 22.67 23.52 3 6.15 2 14.36 4 20.93a73.31 73.31 0 008.38 17.46c11.13 17.57 31.92 19 49.6 27.79 9 4.48 15.69 7 25.58 8.42 8.16 1.2 13.09 5.67 20.78 7.84 9 2.53 18.86-.17 28.08 1.64 11 2.17 20.42 3.48 31.73 3.38 19.66-.19 38.65.53 58.1-3.16 9.47-1.79 18.67-4.53 28.08-6.57 14.16-3.08 28.05-1.26 42.1-3.33 9-1.32 12.61-5.11 19.51-10.37 7.23-5.52 15.7-9 22.76-14.85s12.23-13.2 19.22-18.88c9.75-7.9 21.85-12.28 31.83-19.8 13.24-10 23.64-21.28 39-28.78a154.24 154.24 0 0038.28-26.53c14.74-13.79 33.93-23.81 43-42.78 5.48-11.46 10.07-20.88 16.94-31.54 8.29-12.85 14.54-25.48 17.77-40.46 7.36 2.92 15.71 8.07 23.8 11.3 7.65 3 18.16 5.78 23.52 12.67 2.69 3.47 2.8 7.93 6 11 7.12 6.75 25.19 2.67 34.74 6.11 6.58 2.37 11.66 7.35 18 9.36 7.67 2.43 18.29.32 26.37.33 24.23 0 52.76 4 76.15-1.89 16.45-4.15 31.43-26.21 51-19.77 5.76 1.9 10.15 8.54 16.65 11.51 13.36 6.12 24 8.8 38.27 11.09 12.34 2 33.61 3.63 43 12.58 8.87 8.41 12.6 16.15 26 16.68 15.3.6 33-3 47.41-8.45 21.07-8 28.23-18.75 42.73-33.6 15-15.37 38.45-27.56 58.51-34.22 8.12-2.7 16.67.67 24.68-1.73 8.49-2.54 18.82-8.55 26.77-12.88 38.93-21.24 84-30.16 115.51-64.13 7.3-7.87 9.83-17.23 14.61-26.61a269.51 269.51 0 0015-35.86c12.15-36.16 12.82-78.23 16.55-115.67 2.62-26.64 8.81-57.27 4.94-84.21z" fill="#0f0"/>
</svg>
