<svg data-name="Layer 1" xmlns="http://www.w3.org/2000/svg" viewBox="0 0 1989.8 1958.36">
  <path d="M1825.89 547.15c-11.46-23.77-33.11-37.48-53.2-52.6-10.35-7.79-18-16.7-28.83-23.74-5.7-3.7-9.55-8.12-15.95-11.23-18-8.75-37.51-6.12-57-6.12-19.13 0-38.27-.12-57.41 0-14.22.1-18.78 4.72-27.85 16.62-4.47 5.87-10 12.5-16.18 16-2.67-7.95 1.06-16.2-1.43-24.14-15.06-5.08-15.52 15.34-24 22.62 2.13-7.09-4.78-8.3-9.84-6.3s-10.4 11.77-14.43 15.21-9 6.34-13.41 9c-6.44 3.83-12.82 10.36-19.57 12.17-6.37 1.7-12.67 1.34-19 3.68-10.29 3.77-19.75 10.06-29 15.88-8.28 5.22-15 7.28-23.06 11.38-7.92 4-13.31 9.93-22.22 12.91-17.67 5.9-33.66 14.82-53 13.43-21.75-1.57-41.84-8.32-63.84-8.34-6.42 0-20-2.74-26.38-.29s-11.31 11.32-17.23 15.81c-5.23 4-12.25 5.1-14.58 13.15s1.33 9.54-6.88 14.16c-11.22 6.31-14.28 4.24-20.21 16.1-4.63 9.27-7.1 20.2-18.09 22.94-7.39 1.83-18.86.55-26.38-1-13.62-2.79-27.59-6.53-41.07-9.54-17.8-4-35.88-13.54-54.53-14.51-12.55-.66-20.45 1.8-32.15 6.42-16.67 6.58-34.74 6.4-52.18 10-32.83 6.75-63.51 15.28-83.38 43.17-11.18 15.71-20.17 33.48-33.12 6.24-9.69-20.37-2.86-43.19-22.23-59.11-6.83-5.61-15.33-9.47-21.21-15.4-12.41-12.5-19-18.26-38.17-15.3-11.27 1.73-16.39 8.15-28.2 8-10.56-.14-13.79.67-22.3-5.95-9.5-7.41-20-14.12-28.74-22.5-11.95-11.51-13.44-16.89-30.7-16.51-14.41.32-30.45-2-44.67.24-15.16 2.3-31.96 11.3-46.52 16.3-.91.31-1.82.6-2.72.89-13.46-3.27-26.76-6.26-39.62-10.13-11.8-3.57-26.19-8.66-36.69-16.33-5.09-3.72-10.62-7.32-15.22-11.29-6.6-5.7-6-12.85-11.18-19.62-9.28-12.14-26-16.23-39.75-21.22-7-2.55-12.82-5.9-19.39-9.16-4.55-2.26-13.56-9.8-18.33-10.38-10.78-1.32-7.15 5.75-4.08 12.4 1 2.17 3.59 6.14 4.16 8.07 1.54 5.28-.51 10.44.71 15.61 1.3 5.54 8.6 12.78 3.58 19.47-1.84 2.45-16.11 7.2-18.77 8.37-1.14-14-18.6-16-28.45-20.91-11-5.42-17.79-15-29.66-19.5-1.95-.73-5.27 1.09-7.35-.58-1-.81-2.56-7-3.68-8.57-2.38-3.37-7.18-7.35-10.3-10.1-12.52-11-27.21-3.69-40.47 3.06-14.34 7.3-35.83 6.87-46.19 20.24-2.84 3.66-8.69 10.52-9.89 14.77-2.1 7.42.38 15-2.31 22.13-2.13 5.66-6.76 8.15-9.42 13s-1.29 14.34-.91 19.58c.5 6.91 2.61 12.92 5.19 19.48 2.26 5.76 8.44 12.59 10.41 18.13 2.27 6.41-.85 13.07 1.52 19.47 2.25 6.12 10.06 9.8 11.74 16.12 1.72 6.6.61 10.3 3.86 16.54 2.49 4.77 7.27 10.9 8.39 16.09 2 9.2-.87 9.73 6.39 16 3.1 2.69 3.79-.41 5.92 4.27 1.11 2.43-.36 9.71-.32 12.54.12 8.38.65 12.61-7.14 17.53-6 3.77-9.36 4.81-13.22 11-8.21 13.2 4.16 13 8.26 24.24 2.05 5.66-.72 6.38 3.87 11.64 1.46 1.68 4 1.75 5.38 3.77 5.1 7.37.29 13.93 2.67 21.71a19.63 19.63 0 005.1 7.8c-.23.46-.47.92-.72 1.37a416 416 0 00-21.52 44.66c-3.58 8.83-3.73 9.4-11.32 14.27a29.15 29.15 0 00-9.06 9c-6.34 9.73-10.4 20.65-15.76 30.49-3.84 7-11.11 13.92-15.86 20.69-6 8.56-11.44 17.68-17.32 26.39-7.15 10.58-12.46 22.64-20.3 32.82-2.84 3.69-3.72 4.83-7.25 7.39-1.6 1.17-5.49.05-7.23 1.39-3.27 2.51-10.85 12.71-12.33 16.53-2.22 5.74-3.21 25.45 0 30.91 2.36 4 8.13 4.83 10.6 8.77 3.31 5.29 2.55 11.24 6.93 16.66 4.87 6 11.76 9.44 18.22 13.13 7.23 4.12 7.29 3 8.35 11.09s-2.76 9.79-4.35 16.21c-.59 2.38-1.23 14.07.82 15.91 2.79 2.48 12.11.63 15.7.61 9.3 0 25.88-3.18 34.36.31 10.09 4.16 17.32 16.73 29 19.93 5.2 1.43 12.86.19 18.2.17 9.14-.05 15.52 1.62 24.39 3.17 8.25 1.45 15.86 2.08 23.58 3.37 2.69 4 5.17 8.28 9.08 11.34 1.42 1.11 2.9 2.13 4.4 3.1-2.78 6.14-5.81 11.9-8.3 16.62s-6 9.17-7.59 14.49c-1.5 4.91-.45 10.2-2.62 15-1.73 3.86-9.16 9.11-5.71 13.73 2.2 3 12.27.22 15.5.53 11.34 1.09 21.28 6.72 31.09 12 3.57 1.91 6.84 3.6 10.07 5.09-.05 1.26-.09 2.51-.09 3.74 0 7.47-1.69 17-.29 24.26 1.26 6.48 5.53 9.59 10.46 13.77 5.59 4.74 9.41 9.37 14.31 14.89 14 15.81 32.37 21.16 48.93 32.52 5.83 4 10.78 9 16.29 13.77 7.13 6.21 16 8.87 16.52 18.76.43 7.69-4.31 19.85-7.78 26.76s-10.53 12.62-12.43 20.59c-.94 4 .27 7.86-.19 11.89-.39 3.51-4.06 8.87-3.58 11.92 1.45 9.07 15.15 6.46 21.77 6.43 10.18-.05 14.09 0 22.32 5.1q9.39 5.87 18.47 11.21c6.91 4.08 13.22 7.51 17.44 15.2 4.71 8.58 6.8 15.89 15.19 21.16 14.37 9 30.06 11 47 12.49 11.35 1 11.84 6.5 12.15 17.44s5.74 19 12.13 27.52c5.52 7.4 11.72 8.71 19.58 13.15s13.87 15.16 22.21 18.66c8.11 3.4 20.95.72 29.68.86 6.21.09 10.93.63 16.31-2.28 6.51-3.53 11-8.49 18.36-11.19 7.15-2.63 22.1-5.62 30.05-2.75 4.88 1.76 10.59 8.59 14.16 12.26 7.49 7.68 16.32 16.52 22.92 24.5 4.32 5.24 7.19 12.33 10.36 18.16 4.83 8.87 12.94 13.47 18.36 22.6 7.6 12.81 12.06 27.33 19.37 40 6.28 10.82 12.59 18.8 15.34 31.46 3.87 17.86 18.13 28.44 30.54 40.25 5.19 4.95 10.27 9.18 15.09 14.52 10.67 11.8 20.63 11.46 35.82 15.3 29.49 7.44 62.06 19.1 93 13.66 7.23-1.27 13-6.12 20.24-7.77 6.59-1.49 13.52-.82 20.2-.69 21.54.4 40.36-7.5 61.28-8.36 18.84-.78 39.51 3.39 58 .19 11.21-1.94 20.52-9.81 31.12-13.92a166.71 166.71 0 0154.48-10.84c30.62-.63 65.14 6.83 92-9.83 16.51-10.23 33-23.63 51.17-30.54 14.14-5.37 27.65-1.5 40.27-9.94 14.21-9.51 38.37-21.67 45.48-36.93a190.78 190.78 0 0115.44-27c3.52-5.28 3.79-11.57 6.9-16 9.79-14.07 23.52-10.19 38-12.1 9.84-1.29 12.14-5.6 19.22-12.31 11.19-10.61 15.74-14.29 17.87-29.49.89-6.36 3.79-12.08 4.43-18.46.87-8.61-1.74-13.62 3.26-21.2 4.42-6.68 13.71-14.51 20.28-19 5-3.43 9.66-4.21 12.32-10.26 3-6.78.08-16.61.42-23.77.6-13.06 5.42-25.23 7.46-38 5.66-35.55 12-69.71 22-104.4 10.31-.9 14.57-3.29 23.76-8.68 10.3-6.06 14.15-6.19 24.47-9 6.77-1.83 17.33-9.19 19.79-15.83 2.21-6 .29-13.81.39-20 .24-13.75 6.39-21.9 10.22-34.45 2.54-8.32 1-16.77 5.13-23.83 4.94-8.37 15.07-11.33 20.88-19.4 5.28-7.35 9.34-13.92 17-19.37 8.76-6.23 17.67-10.58 20.47-21.79 4.87-19.49 2.48-39.61 6-58.8.08-.42.14-.86.21-1.29a75.89 75.89 0 017.79-15.07 204.37 204.37 0 0117.85-21.27 23.2 23.2 0 005.17-5.55c7.81-8.5 7.79-12.27 7.73-24 0-7.45.43-15 0-22.47-.66-12.44-10.32-20.68-12.43-32.44-3-16.76 6.2-31.19 4.44-48-2.22-21.13-18.24-37.14-24.78-56.52-3.14-9.32-8.65-18.64-11.33-28-1.87-6.57 1.14-13.64-.49-19.9-1-4-3.21-5.86-5-8.8 5.51-8.2 11.87-16 16.84-24.09 6.14-10 14.22-21 17.61-32.36 5.53-18.45 3.93-42.11 3-61.24-.46-9.07-3.11-12.87-10.28-19.15-7.7-6.75-9.61-5.92-10.21-16.13-.57-9.57.47-14.11 7.06-21.29 14.17-15.43 7.34-31.54 9-50.51 1.39-15.85 13.43-13 21.18-24.8 6.79-10.01 4.79-25.96-.08-36.05z" fill="#2300ff"/>
</svg>
