<svg viewBox="0 0 49.4 51.1" xmlns="http://www.w3.org/2000/svg" >
  <path d="M24.6 26.5s-.2 2-1.6 1.9c-1.4-.1-.9-1.7-.5-2.4.3-.6 1.2-1.5 3.3-1 2.1.5 2.4 2.9 1.9 4.5S25.4 33.7 21 33c-4.5-.7-4.5-5.2-3.1-7.8s2.7-5.4 8.3-5.2c5.6.2 7.8 2.5 8.6 5.2s1.3 7.6-4.4 12.3-14 1.1-16.4-1.1-4.7-5.2-4.1-10.5 5.2-10 9.4-11.6 7.8-2.6 12.7-1.6 9.1 5.1 10.7 9.4 1.3 13.5-4.3 18.6-14 5.8-18.7 5-11.3-6.4-13-11.3C5 29.7 4.8 22.9 8.6 16.1c1.1-2 3.7-6.7 9.3-9.4 4-2 9.6-2.6 16.9-1.4l1.5-3.4s-8.5-4.3-19.1.9S4.1 13.8 2.4 19c-1.7 5.3-4.2 14.9 1 22.1C8.5 48.4 15 51 23.5 50.9c8.6-.1 14.2-2.4 18.6-6.5s7.5-10.8 7-17.9c-.4-5.9-5.8-14-10.1-16s-9.6-4-19-1.1S8.5 21.8 8.2 23.6c-.3 1.7-1.5 10.6 4.9 15.3s12.5 5.3 19 1.8c6.6-3.6 7.7-12.5 7-16.4-.7-3.9-2.8-8.7-11.1-8.8-8.3-.1-11.8 3.7-13.7 7.3-1.1 2.1-2.5 8.2 1 11.4s9.8 3.2 13.2.4 2.9-8.1 2.3-9.2c-.6-1-2.7-3.3-5.9-2.9s-4.7 3.4-4.5 4.7c.2 1.9 1.7 3 3.1 3 1.5 0 2.3-1.7 2.7-3.1l-1.6-.6z" fill="#0000f3"/>
</svg>
